<svg width="676" height="124" xmlns="http://www.w3.org/2000/svg" style="background-color: white;">
<text x="5" y="39" font-family="sans-serif" font-size="8" fill="#767676">Mon</text>
<text x="5" y="63" font-family="sans-serif" font-size="8" fill="#767676">Wed</text>
<text x="5" y="87" font-family="sans-serif" font-size="8" fill="#767676">Fri</text>
<a href="https://kreier.github.io/quartz/Diary/2008"><rect x="30" y="42" width="10" height="10" fill="#ef9a9a" rx="2" ry="2"><title>2008-01-01: 1 entry
2008</title></rect></a>
<rect x="30" y="54" width="10" height="10" fill="#ebedf0" rx="2" ry="2"><title>2008-01-02: 0 entries</title></rect>
<rect x="30" y="66" width="10" height="10" fill="#ebedf0" rx="2" ry="2"><title>2008-01-03: 0 entries</title></rect>
<rect x="30" y="78" width="10" height="10" fill="#ebedf0" rx="2" ry="2"><title>2008-01-04: 0 entries</title></rect>
<rect x="30" y="90" width="10" height="10" fill="#ebedf0" rx="2" ry="2"><title>2008-01-05: 0 entries</title></rect>
<text x="42" y="12" font-family="sans-serif" font-size="8" fill="#767676">Jan</text>
<rect x="42" y="18" width="10" height="10" fill="#ebedf0" rx="2" ry="2"><title>2008-01-06: 0 entries</title></rect>
<rect x="42" y="30" width="10" height="10" fill="#ebedf0" rx="2" ry="2"><title>2008-01-07: 0 entries</title></rect>
<rect x="42" y="42" width="10" height="10" fill="#ebedf0" rx="2" ry="2"><title>2008-01-08: 0 entries</title></rect>
<rect x="42" y="54" width="10" height="10" fill="#ebedf0" rx="2" ry="2"><title>2008-01-09: 0 entries</title></rect>
<rect x="42" y="66" width="10" height="10" fill="#ebedf0" rx="2" ry="2"><title>2008-01-10: 0 entries</title></rect>
<rect x="42" y="78" width="10" height="10" fill="#ebedf0" rx="2" ry="2"><title>2008-01-11: 0 entries</title></rect>
<rect x="42" y="90" width="10" height="10" fill="#ebedf0" rx="2" ry="2"><title>2008-01-12: 0 entries</title></rect>
<rect x="54" y="18" width="10" height="10" fill="#ebedf0" rx="2" ry="2"><title>2008-01-13: 0 entries</title></rect>
<rect x="54" y="30" width="10" height="10" fill="#ebedf0" rx="2" ry="2"><title>2008-01-14: 0 entries</title></rect>
<rect x="54" y="42" width="10" height="10" fill="#ebedf0" rx="2" ry="2"><title>2008-01-15: 0 entries</title></rect>
<rect x="54" y="54" width="10" height="10" fill="#ebedf0" rx="2" ry="2"><title>2008-01-16: 0 entries</title></rect>
<rect x="54" y="66" width="10" height="10" fill="#ebedf0" rx="2" ry="2"><title>2008-01-17: 0 entries</title></rect>
<rect x="54" y="78" width="10" height="10" fill="#ebedf0" rx="2" ry="2"><title>2008-01-18: 0 entries</title></rect>
<rect x="54" y="90" width="10" height="10" fill="#ebedf0" rx="2" ry="2"><title>2008-01-19: 0 entries</title></rect>
<rect x="66" y="18" width="10" height="10" fill="#ebedf0" rx="2" ry="2"><title>2008-01-20: 0 entries</title></rect>
<rect x="66" y="30" width="10" height="10" fill="#ebedf0" rx="2" ry="2"><title>2008-01-21: 0 entries</title></rect>
<rect x="66" y="42" width="10" height="10" fill="#ebedf0" rx="2" ry="2"><title>2008-01-22: 0 entries</title></rect>
<rect x="66" y="54" width="10" height="10" fill="#ebedf0" rx="2" ry="2"><title>2008-01-23: 0 entries</title></rect>
<a href="https://saiht.de/blog/2008/01/24/zum-funften-mal-nach-moskau/"><rect x="66" y="66" width="10" height="10" fill="#216e39" rx="2" ry="2"><title>2008-01-24: 2 entries
zum fünften Mal nach Moskau
Diplomarbeit ist fertig!</title></rect></a>
<rect x="66" y="78" width="10" height="10" fill="#ebedf0" rx="2" ry="2"><title>2008-01-25: 0 entries</title></rect>
<rect x="66" y="90" width="10" height="10" fill="#ebedf0" rx="2" ry="2"><title>2008-01-26: 0 entries</title></rect>
<rect x="78" y="18" width="10" height="10" fill="#ebedf0" rx="2" ry="2"><title>2008-01-27: 0 entries</title></rect>
<rect x="78" y="30" width="10" height="10" fill="#ebedf0" rx="2" ry="2"><title>2008-01-28: 0 entries</title></rect>
<rect x="78" y="42" width="10" height="10" fill="#ebedf0" rx="2" ry="2"><title>2008-01-29: 0 entries</title></rect>
<rect x="78" y="54" width="10" height="10" fill="#ebedf0" rx="2" ry="2"><title>2008-01-30: 0 entries</title></rect>
<rect x="78" y="66" width="10" height="10" fill="#ebedf0" rx="2" ry="2"><title>2008-01-31: 0 entries</title></rect>
<rect x="78" y="78" width="10" height="10" fill="#ebedf0" rx="2" ry="2"><title>2008-02-01: 0 entries</title></rect>
<rect x="78" y="90" width="10" height="10" fill="#ebedf0" rx="2" ry="2"><title>2008-02-02: 0 entries</title></rect>
<text x="90" y="12" font-family="sans-serif" font-size="8" fill="#767676">Feb</text>
<rect x="90" y="18" width="10" height="10" fill="#ebedf0" rx="2" ry="2"><title>2008-02-03: 0 entries</title></rect>
<rect x="90" y="30" width="10" height="10" fill="#ebedf0" rx="2" ry="2"><title>2008-02-04: 0 entries</title></rect>
<rect x="90" y="42" width="10" height="10" fill="#ebedf0" rx="2" ry="2"><title>2008-02-05: 0 entries</title></rect>
<rect x="90" y="54" width="10" height="10" fill="#ebedf0" rx="2" ry="2"><title>2008-02-06: 0 entries</title></rect>
<rect x="90" y="66" width="10" height="10" fill="#ebedf0" rx="2" ry="2"><title>2008-02-07: 0 entries</title></rect>
<rect x="90" y="78" width="10" height="10" fill="#ebedf0" rx="2" ry="2"><title>2008-02-08: 0 entries</title></rect>
<rect x="90" y="90" width="10" height="10" fill="#ebedf0" rx="2" ry="2"><title>2008-02-09: 0 entries</title></rect>
<rect x="102" y="18" width="10" height="10" fill="#ebedf0" rx="2" ry="2"><title>2008-02-10: 0 entries</title></rect>
<rect x="102" y="30" width="10" height="10" fill="#ebedf0" rx="2" ry="2"><title>2008-02-11: 0 entries</title></rect>
<rect x="102" y="42" width="10" height="10" fill="#ebedf0" rx="2" ry="2"><title>2008-02-12: 0 entries</title></rect>
<rect x="102" y="54" width="10" height="10" fill="#ebedf0" rx="2" ry="2"><title>2008-02-13: 0 entries</title></rect>
<rect x="102" y="66" width="10" height="10" fill="#ebedf0" rx="2" ry="2"><title>2008-02-14: 0 entries</title></rect>
<rect x="102" y="78" width="10" height="10" fill="#ebedf0" rx="2" ry="2"><title>2008-02-15: 0 entries</title></rect>
<rect x="102" y="90" width="10" height="10" fill="#ebedf0" rx="2" ry="2"><title>2008-02-16: 0 entries</title></rect>
<rect x="114" y="18" width="10" height="10" fill="#ebedf0" rx="2" ry="2"><title>2008-02-17: 0 entries</title></rect>
<rect x="114" y="30" width="10" height="10" fill="#ebedf0" rx="2" ry="2"><title>2008-02-18: 0 entries</title></rect>
<rect x="114" y="42" width="10" height="10" fill="#ebedf0" rx="2" ry="2"><title>2008-02-19: 0 entries</title></rect>
<rect x="114" y="54" width="10" height="10" fill="#ebedf0" rx="2" ry="2"><title>2008-02-20: 0 entries</title></rect>
<rect x="114" y="66" width="10" height="10" fill="#ebedf0" rx="2" ry="2"><title>2008-02-21: 0 entries</title></rect>
<rect x="114" y="78" width="10" height="10" fill="#ebedf0" rx="2" ry="2"><title>2008-02-22: 0 entries</title></rect>
<rect x="114" y="90" width="10" height="10" fill="#ebedf0" rx="2" ry="2"><title>2008-02-23: 0 entries</title></rect>
<rect x="126" y="18" width="10" height="10" fill="#ebedf0" rx="2" ry="2"><title>2008-02-24: 0 entries</title></rect>
<rect x="126" y="30" width="10" height="10" fill="#ebedf0" rx="2" ry="2"><title>2008-02-25: 0 entries</title></rect>
<rect x="126" y="42" width="10" height="10" fill="#ebedf0" rx="2" ry="2"><title>2008-02-26: 0 entries</title></rect>
<rect x="126" y="54" width="10" height="10" fill="#ebedf0" rx="2" ry="2"><title>2008-02-27: 0 entries</title></rect>
<rect x="126" y="66" width="10" height="10" fill="#ebedf0" rx="2" ry="2"><title>2008-02-28: 0 entries</title></rect>
<rect x="126" y="78" width="10" height="10" fill="#ebedf0" rx="2" ry="2"><title>2008-02-29: 0 entries</title></rect>
<rect x="126" y="90" width="10" height="10" fill="#ebedf0" rx="2" ry="2"><title>2008-03-01: 0 entries</title></rect>
<text x="138" y="12" font-family="sans-serif" font-size="8" fill="#767676">Mar</text>
<rect x="138" y="18" width="10" height="10" fill="#ebedf0" rx="2" ry="2"><title>2008-03-02: 0 entries</title></rect>
<rect x="138" y="30" width="10" height="10" fill="#ebedf0" rx="2" ry="2"><title>2008-03-03: 0 entries</title></rect>
<rect x="138" y="42" width="10" height="10" fill="#ebedf0" rx="2" ry="2"><title>2008-03-04: 0 entries</title></rect>
<rect x="138" y="54" width="10" height="10" fill="#ebedf0" rx="2" ry="2"><title>2008-03-05: 0 entries</title></rect>
<rect x="138" y="66" width="10" height="10" fill="#ebedf0" rx="2" ry="2"><title>2008-03-06: 0 entries</title></rect>
<rect x="138" y="78" width="10" height="10" fill="#ebedf0" rx="2" ry="2"><title>2008-03-07: 0 entries</title></rect>
<rect x="138" y="90" width="10" height="10" fill="#ebedf0" rx="2" ry="2"><title>2008-03-08: 0 entries</title></rect>
<rect x="150" y="18" width="10" height="10" fill="#ebedf0" rx="2" ry="2"><title>2008-03-09: 0 entries</title></rect>
<rect x="150" y="30" width="10" height="10" fill="#ebedf0" rx="2" ry="2"><title>2008-03-10: 0 entries</title></rect>
<rect x="150" y="42" width="10" height="10" fill="#ebedf0" rx="2" ry="2"><title>2008-03-11: 0 entries</title></rect>
<rect x="150" y="54" width="10" height="10" fill="#ebedf0" rx="2" ry="2"><title>2008-03-12: 0 entries</title></rect>
<rect x="150" y="66" width="10" height="10" fill="#ebedf0" rx="2" ry="2"><title>2008-03-13: 0 entries</title></rect>
<rect x="150" y="78" width="10" height="10" fill="#ebedf0" rx="2" ry="2"><title>2008-03-14: 0 entries</title></rect>
<rect x="150" y="90" width="10" height="10" fill="#ebedf0" rx="2" ry="2"><title>2008-03-15: 0 entries</title></rect>
<rect x="162" y="18" width="10" height="10" fill="#ebedf0" rx="2" ry="2"><title>2008-03-16: 0 entries</title></rect>
<rect x="162" y="30" width="10" height="10" fill="#ebedf0" rx="2" ry="2"><title>2008-03-17: 0 entries</title></rect>
<rect x="162" y="42" width="10" height="10" fill="#ebedf0" rx="2" ry="2"><title>2008-03-18: 0 entries</title></rect>
<rect x="162" y="54" width="10" height="10" fill="#ebedf0" rx="2" ry="2"><title>2008-03-19: 0 entries</title></rect>
<a href="https://saiht.de/blog/2008/03/20/abschlussprufung-des-physikstudiums/"><rect x="162" y="66" width="10" height="10" fill="#40c463" rx="2" ry="2"><title>2008-03-20: 1 entry
Abschlussprüfung des Physikstudiums</title></rect></a>
<rect x="162" y="78" width="10" height="10" fill="#ebedf0" rx="2" ry="2"><title>2008-03-21: 0 entries</title></rect>
<rect x="162" y="90" width="10" height="10" fill="#ebedf0" rx="2" ry="2"><title>2008-03-22: 0 entries</title></rect>
<rect x="174" y="18" width="10" height="10" fill="#ebedf0" rx="2" ry="2"><title>2008-03-23: 0 entries</title></rect>
<rect x="174" y="30" width="10" height="10" fill="#ebedf0" rx="2" ry="2"><title>2008-03-24: 0 entries</title></rect>
<a href="https://saiht.de/legacy/physik/physik.html"><rect x="174" y="42" width="10" height="10" fill="#90caf9" rx="2" ry="2"><title>2008-03-25: 1 entry
Studium zum Diplom-Physiker</title></rect></a>
<rect x="174" y="54" width="10" height="10" fill="#ebedf0" rx="2" ry="2"><title>2008-03-26: 0 entries</title></rect>
<rect x="174" y="66" width="10" height="10" fill="#ebedf0" rx="2" ry="2"><title>2008-03-27: 0 entries</title></rect>
<rect x="174" y="78" width="10" height="10" fill="#ebedf0" rx="2" ry="2"><title>2008-03-28: 0 entries</title></rect>
<rect x="174" y="90" width="10" height="10" fill="#ebedf0" rx="2" ry="2"><title>2008-03-29: 0 entries</title></rect>
<rect x="186" y="18" width="10" height="10" fill="#ebedf0" rx="2" ry="2"><title>2008-03-30: 0 entries</title></rect>
<rect x="186" y="30" width="10" height="10" fill="#ebedf0" rx="2" ry="2"><title>2008-03-31: 0 entries</title></rect>
<rect x="186" y="42" width="10" height="10" fill="#ebedf0" rx="2" ry="2"><title>2008-04-01: 0 entries</title></rect>
<rect x="186" y="54" width="10" height="10" fill="#ebedf0" rx="2" ry="2"><title>2008-04-02: 0 entries</title></rect>
<rect x="186" y="66" width="10" height="10" fill="#ebedf0" rx="2" ry="2"><title>2008-04-03: 0 entries</title></rect>
<rect x="186" y="78" width="10" height="10" fill="#ebedf0" rx="2" ry="2"><title>2008-04-04: 0 entries</title></rect>
<rect x="186" y="90" width="10" height="10" fill="#ebedf0" rx="2" ry="2"><title>2008-04-05: 0 entries</title></rect>
<text x="198" y="12" font-family="sans-serif" font-size="8" fill="#767676">Apr</text>
<rect x="198" y="18" width="10" height="10" fill="#ebedf0" rx="2" ry="2"><title>2008-04-06: 0 entries</title></rect>
<rect x="198" y="30" width="10" height="10" fill="#ebedf0" rx="2" ry="2"><title>2008-04-07: 0 entries</title></rect>
<rect x="198" y="42" width="10" height="10" fill="#ebedf0" rx="2" ry="2"><title>2008-04-08: 0 entries</title></rect>
<rect x="198" y="54" width="10" height="10" fill="#ebedf0" rx="2" ry="2"><title>2008-04-09: 0 entries</title></rect>
<rect x="198" y="66" width="10" height="10" fill="#ebedf0" rx="2" ry="2"><title>2008-04-10: 0 entries</title></rect>
<rect x="198" y="78" width="10" height="10" fill="#ebedf0" rx="2" ry="2"><title>2008-04-11: 0 entries</title></rect>
<rect x="198" y="90" width="10" height="10" fill="#ebedf0" rx="2" ry="2"><title>2008-04-12: 0 entries</title></rect>
<rect x="210" y="18" width="10" height="10" fill="#ebedf0" rx="2" ry="2"><title>2008-04-13: 0 entries</title></rect>
<rect x="210" y="30" width="10" height="10" fill="#ebedf0" rx="2" ry="2"><title>2008-04-14: 0 entries</title></rect>
<rect x="210" y="42" width="10" height="10" fill="#ebedf0" rx="2" ry="2"><title>2008-04-15: 0 entries</title></rect>
<rect x="210" y="54" width="10" height="10" fill="#ebedf0" rx="2" ry="2"><title>2008-04-16: 0 entries</title></rect>
<a href="https://saiht.de/blog/2008/04/17/mandigo-theme/"><rect x="210" y="66" width="10" height="10" fill="#216e39" rx="2" ry="2"><title>2008-04-17: 2 entries
Mandigo Theme
upgrade auf WordPress 2.5</title></rect></a>
<rect x="210" y="78" width="10" height="10" fill="#ebedf0" rx="2" ry="2"><title>2008-04-18: 0 entries</title></rect>
<rect x="210" y="90" width="10" height="10" fill="#ebedf0" rx="2" ry="2"><title>2008-04-19: 0 entries</title></rect>
<rect x="222" y="18" width="10" height="10" fill="#ebedf0" rx="2" ry="2"><title>2008-04-20: 0 entries</title></rect>
<rect x="222" y="30" width="10" height="10" fill="#ebedf0" rx="2" ry="2"><title>2008-04-21: 0 entries</title></rect>
<a href="https://saiht.de/legacy/"><rect x="222" y="42" width="10" height="10" fill="#90caf9" rx="2" ry="2"><title>2008-04-22: 1 entry
der saiht im internet</title></rect></a>
<rect x="222" y="54" width="10" height="10" fill="#ebedf0" rx="2" ry="2"><title>2008-04-23: 0 entries</title></rect>
<rect x="222" y="66" width="10" height="10" fill="#ebedf0" rx="2" ry="2"><title>2008-04-24: 0 entries</title></rect>
<rect x="222" y="78" width="10" height="10" fill="#ebedf0" rx="2" ry="2"><title>2008-04-25: 0 entries</title></rect>
<rect x="222" y="90" width="10" height="10" fill="#ebedf0" rx="2" ry="2"><title>2008-04-26: 0 entries</title></rect>
<rect x="234" y="18" width="10" height="10" fill="#ebedf0" rx="2" ry="2"><title>2008-04-27: 0 entries</title></rect>
<rect x="234" y="30" width="10" height="10" fill="#ebedf0" rx="2" ry="2"><title>2008-04-28: 0 entries</title></rect>
<rect x="234" y="42" width="10" height="10" fill="#ebedf0" rx="2" ry="2"><title>2008-04-29: 0 entries</title></rect>
<rect x="234" y="54" width="10" height="10" fill="#ebedf0" rx="2" ry="2"><title>2008-04-30: 0 entries</title></rect>
<rect x="234" y="66" width="10" height="10" fill="#ebedf0" rx="2" ry="2"><title>2008-05-01: 0 entries</title></rect>
<rect x="234" y="78" width="10" height="10" fill="#ebedf0" rx="2" ry="2"><title>2008-05-02: 0 entries</title></rect>
<rect x="234" y="90" width="10" height="10" fill="#ebedf0" rx="2" ry="2"><title>2008-05-03: 0 entries</title></rect>
<text x="246" y="12" font-family="sans-serif" font-size="8" fill="#767676">May</text>
<a href="https://saiht.de/legacy/guestbook.html"><rect x="246" y="18" width="10" height="10" fill="#90caf9" rx="2" ry="2"><title>2008-05-04: 1 entry
Gstebuch</title></rect></a>
<rect x="246" y="30" width="10" height="10" fill="#ebedf0" rx="2" ry="2"><title>2008-05-05: 0 entries</title></rect>
<rect x="246" y="42" width="10" height="10" fill="#ebedf0" rx="2" ry="2"><title>2008-05-06: 0 entries</title></rect>
<rect x="246" y="54" width="10" height="10" fill="#ebedf0" rx="2" ry="2"><title>2008-05-07: 0 entries</title></rect>
<rect x="246" y="66" width="10" height="10" fill="#ebedf0" rx="2" ry="2"><title>2008-05-08: 0 entries</title></rect>
<rect x="246" y="78" width="10" height="10" fill="#ebedf0" rx="2" ry="2"><title>2008-05-09: 0 entries</title></rect>
<rect x="246" y="90" width="10" height="10" fill="#ebedf0" rx="2" ry="2"><title>2008-05-10: 0 entries</title></rect>
<rect x="258" y="18" width="10" height="10" fill="#ebedf0" rx="2" ry="2"><title>2008-05-11: 0 entries</title></rect>
<rect x="258" y="30" width="10" height="10" fill="#ebedf0" rx="2" ry="2"><title>2008-05-12: 0 entries</title></rect>
<a href="https://saiht.de/legacy/urlaub/2008_ruegen.html"><rect x="258" y="42" width="10" height="10" fill="#42a5f5" rx="2" ry="2"><title>2008-05-13: 2 entries
Fahrradurlaub auf Rügen
Elbrus im Kaukasus</title></rect></a>
<rect x="258" y="54" width="10" height="10" fill="#ebedf0" rx="2" ry="2"><title>2008-05-14: 0 entries</title></rect>
<rect x="258" y="66" width="10" height="10" fill="#ebedf0" rx="2" ry="2"><title>2008-05-15: 0 entries</title></rect>
<a href="https://saiht.de/blog/2008/05/16/wordpress-ist-ganz-einfach-2/"><rect x="258" y="78" width="10" height="10" fill="#40c463" rx="2" ry="2"><title>2008-05-16: 1 entry
WordPress ist ganz einfach</title></rect></a>
<rect x="258" y="90" width="10" height="10" fill="#ebedf0" rx="2" ry="2"><title>2008-05-17: 0 entries</title></rect>
<rect x="270" y="18" width="10" height="10" fill="#ebedf0" rx="2" ry="2"><title>2008-05-18: 0 entries</title></rect>
<a href="https://saiht.de/legacy/computer/html.html"><rect x="270" y="30" width="10" height="10" fill="#90caf9" rx="2" ry="2"><title>2008-05-19: 1 entry
HTML-Seiten selbst erstellen</title></rect></a>
<rect x="270" y="42" width="10" height="10" fill="#ebedf0" rx="2" ry="2"><title>2008-05-20: 0 entries</title></rect>
<rect x="270" y="54" width="10" height="10" fill="#ebedf0" rx="2" ry="2"><title>2008-05-21: 0 entries</title></rect>
<rect x="270" y="66" width="10" height="10" fill="#ebedf0" rx="2" ry="2"><title>2008-05-22: 0 entries</title></rect>
<rect x="270" y="78" width="10" height="10" fill="#ebedf0" rx="2" ry="2"><title>2008-05-23: 0 entries</title></rect>
<rect x="270" y="90" width="10" height="10" fill="#ebedf0" rx="2" ry="2"><title>2008-05-24: 0 entries</title></rect>
<rect x="282" y="18" width="10" height="10" fill="#ebedf0" rx="2" ry="2"><title>2008-05-25: 0 entries</title></rect>
<rect x="282" y="30" width="10" height="10" fill="#ebedf0" rx="2" ry="2"><title>2008-05-26: 0 entries</title></rect>
<rect x="282" y="42" width="10" height="10" fill="#ebedf0" rx="2" ry="2"><title>2008-05-27: 0 entries</title></rect>
<rect x="282" y="54" width="10" height="10" fill="#ebedf0" rx="2" ry="2"><title>2008-05-28: 0 entries</title></rect>
<rect x="282" y="66" width="10" height="10" fill="#ebedf0" rx="2" ry="2"><title>2008-05-29: 0 entries</title></rect>
<rect x="282" y="78" width="10" height="10" fill="#ebedf0" rx="2" ry="2"><title>2008-05-30: 0 entries</title></rect>
<rect x="282" y="90" width="10" height="10" fill="#ebedf0" rx="2" ry="2"><title>2008-05-31: 0 entries</title></rect>
<text x="294" y="12" font-family="sans-serif" font-size="8" fill="#767676">Jun</text>
<rect x="294" y="18" width="10" height="10" fill="#ebedf0" rx="2" ry="2"><title>2008-06-01: 0 entries</title></rect>
<rect x="294" y="30" width="10" height="10" fill="#ebedf0" rx="2" ry="2"><title>2008-06-02: 0 entries</title></rect>
<rect x="294" y="42" width="10" height="10" fill="#ebedf0" rx="2" ry="2"><title>2008-06-03: 0 entries</title></rect>
<rect x="294" y="54" width="10" height="10" fill="#ebedf0" rx="2" ry="2"><title>2008-06-04: 0 entries</title></rect>
<rect x="294" y="66" width="10" height="10" fill="#ebedf0" rx="2" ry="2"><title>2008-06-05: 0 entries</title></rect>
<rect x="294" y="78" width="10" height="10" fill="#ebedf0" rx="2" ry="2"><title>2008-06-06: 0 entries</title></rect>
<rect x="294" y="90" width="10" height="10" fill="#ebedf0" rx="2" ry="2"><title>2008-06-07: 0 entries</title></rect>
<rect x="306" y="18" width="10" height="10" fill="#ebedf0" rx="2" ry="2"><title>2008-06-08: 0 entries</title></rect>
<rect x="306" y="30" width="10" height="10" fill="#ebedf0" rx="2" ry="2"><title>2008-06-09: 0 entries</title></rect>
<rect x="306" y="42" width="10" height="10" fill="#ebedf0" rx="2" ry="2"><title>2008-06-10: 0 entries</title></rect>
<rect x="306" y="54" width="10" height="10" fill="#ebedf0" rx="2" ry="2"><title>2008-06-11: 0 entries</title></rect>
<rect x="306" y="66" width="10" height="10" fill="#ebedf0" rx="2" ry="2"><title>2008-06-12: 0 entries</title></rect>
<rect x="306" y="78" width="10" height="10" fill="#ebedf0" rx="2" ry="2"><title>2008-06-13: 0 entries</title></rect>
<rect x="306" y="90" width="10" height="10" fill="#ebedf0" rx="2" ry="2"><title>2008-06-14: 0 entries</title></rect>
<rect x="318" y="18" width="10" height="10" fill="#ebedf0" rx="2" ry="2"><title>2008-06-15: 0 entries</title></rect>
<rect x="318" y="30" width="10" height="10" fill="#ebedf0" rx="2" ry="2"><title>2008-06-16: 0 entries</title></rect>
<rect x="318" y="42" width="10" height="10" fill="#ebedf0" rx="2" ry="2"><title>2008-06-17: 0 entries</title></rect>
<rect x="318" y="54" width="10" height="10" fill="#ebedf0" rx="2" ry="2"><title>2008-06-18: 0 entries</title></rect>
<rect x="318" y="66" width="10" height="10" fill="#ebedf0" rx="2" ry="2"><title>2008-06-19: 0 entries</title></rect>
<rect x="318" y="78" width="10" height="10" fill="#ebedf0" rx="2" ry="2"><title>2008-06-20: 0 entries</title></rect>
<rect x="318" y="90" width="10" height="10" fill="#ebedf0" rx="2" ry="2"><title>2008-06-21: 0 entries</title></rect>
<rect x="330" y="18" width="10" height="10" fill="#ebedf0" rx="2" ry="2"><title>2008-06-22: 0 entries</title></rect>
<rect x="330" y="30" width="10" height="10" fill="#ebedf0" rx="2" ry="2"><title>2008-06-23: 0 entries</title></rect>
<rect x="330" y="42" width="10" height="10" fill="#ebedf0" rx="2" ry="2"><title>2008-06-24: 0 entries</title></rect>
<rect x="330" y="54" width="10" height="10" fill="#ebedf0" rx="2" ry="2"><title>2008-06-25: 0 entries</title></rect>
<rect x="330" y="66" width="10" height="10" fill="#ebedf0" rx="2" ry="2"><title>2008-06-26: 0 entries</title></rect>
<rect x="330" y="78" width="10" height="10" fill="#ebedf0" rx="2" ry="2"><title>2008-06-27: 0 entries</title></rect>
<rect x="330" y="90" width="10" height="10" fill="#ebedf0" rx="2" ry="2"><title>2008-06-28: 0 entries</title></rect>
<rect x="342" y="18" width="10" height="10" fill="#ebedf0" rx="2" ry="2"><title>2008-06-29: 0 entries</title></rect>
<rect x="342" y="30" width="10" height="10" fill="#ebedf0" rx="2" ry="2"><title>2008-06-30: 0 entries</title></rect>
<rect x="342" y="42" width="10" height="10" fill="#ebedf0" rx="2" ry="2"><title>2008-07-01: 0 entries</title></rect>
<rect x="342" y="54" width="10" height="10" fill="#ebedf0" rx="2" ry="2"><title>2008-07-02: 0 entries</title></rect>
<rect x="342" y="66" width="10" height="10" fill="#ebedf0" rx="2" ry="2"><title>2008-07-03: 0 entries</title></rect>
<rect x="342" y="78" width="10" height="10" fill="#ebedf0" rx="2" ry="2"><title>2008-07-04: 0 entries</title></rect>
<rect x="342" y="90" width="10" height="10" fill="#ebedf0" rx="2" ry="2"><title>2008-07-05: 0 entries</title></rect>
<text x="354" y="12" font-family="sans-serif" font-size="8" fill="#767676">Jul</text>
<rect x="354" y="18" width="10" height="10" fill="#ebedf0" rx="2" ry="2"><title>2008-07-06: 0 entries</title></rect>
<rect x="354" y="30" width="10" height="10" fill="#ebedf0" rx="2" ry="2"><title>2008-07-07: 0 entries</title></rect>
<rect x="354" y="42" width="10" height="10" fill="#ebedf0" rx="2" ry="2"><title>2008-07-08: 0 entries</title></rect>
<rect x="354" y="54" width="10" height="10" fill="#ebedf0" rx="2" ry="2"><title>2008-07-09: 0 entries</title></rect>
<rect x="354" y="66" width="10" height="10" fill="#ebedf0" rx="2" ry="2"><title>2008-07-10: 0 entries</title></rect>
<rect x="354" y="78" width="10" height="10" fill="#ebedf0" rx="2" ry="2"><title>2008-07-11: 0 entries</title></rect>
<rect x="354" y="90" width="10" height="10" fill="#ebedf0" rx="2" ry="2"><title>2008-07-12: 0 entries</title></rect>
<rect x="366" y="18" width="10" height="10" fill="#ebedf0" rx="2" ry="2"><title>2008-07-13: 0 entries</title></rect>
<rect x="366" y="30" width="10" height="10" fill="#ebedf0" rx="2" ry="2"><title>2008-07-14: 0 entries</title></rect>
<rect x="366" y="42" width="10" height="10" fill="#ebedf0" rx="2" ry="2"><title>2008-07-15: 0 entries</title></rect>
<rect x="366" y="54" width="10" height="10" fill="#ebedf0" rx="2" ry="2"><title>2008-07-16: 0 entries</title></rect>
<rect x="366" y="66" width="10" height="10" fill="#ebedf0" rx="2" ry="2"><title>2008-07-17: 0 entries</title></rect>
<rect x="366" y="78" width="10" height="10" fill="#ebedf0" rx="2" ry="2"><title>2008-07-18: 0 entries</title></rect>
<rect x="366" y="90" width="10" height="10" fill="#ebedf0" rx="2" ry="2"><title>2008-07-19: 0 entries</title></rect>
<rect x="378" y="18" width="10" height="10" fill="#ebedf0" rx="2" ry="2"><title>2008-07-20: 0 entries</title></rect>
<rect x="378" y="30" width="10" height="10" fill="#ebedf0" rx="2" ry="2"><title>2008-07-21: 0 entries</title></rect>
<rect x="378" y="42" width="10" height="10" fill="#ebedf0" rx="2" ry="2"><title>2008-07-22: 0 entries</title></rect>
<rect x="378" y="54" width="10" height="10" fill="#ebedf0" rx="2" ry="2"><title>2008-07-23: 0 entries</title></rect>
<rect x="378" y="66" width="10" height="10" fill="#ebedf0" rx="2" ry="2"><title>2008-07-24: 0 entries</title></rect>
<rect x="378" y="78" width="10" height="10" fill="#ebedf0" rx="2" ry="2"><title>2008-07-25: 0 entries</title></rect>
<rect x="378" y="90" width="10" height="10" fill="#ebedf0" rx="2" ry="2"><title>2008-07-26: 0 entries</title></rect>
<rect x="390" y="18" width="10" height="10" fill="#ebedf0" rx="2" ry="2"><title>2008-07-27: 0 entries</title></rect>
<rect x="390" y="30" width="10" height="10" fill="#ebedf0" rx="2" ry="2"><title>2008-07-28: 0 entries</title></rect>
<rect x="390" y="42" width="10" height="10" fill="#ebedf0" rx="2" ry="2"><title>2008-07-29: 0 entries</title></rect>
<rect x="390" y="54" width="10" height="10" fill="#ebedf0" rx="2" ry="2"><title>2008-07-30: 0 entries</title></rect>
<rect x="390" y="66" width="10" height="10" fill="#ebedf0" rx="2" ry="2"><title>2008-07-31: 0 entries</title></rect>
<rect x="390" y="78" width="10" height="10" fill="#ebedf0" rx="2" ry="2"><title>2008-08-01: 0 entries</title></rect>
<rect x="390" y="90" width="10" height="10" fill="#ebedf0" rx="2" ry="2"><title>2008-08-02: 0 entries</title></rect>
<text x="402" y="12" font-family="sans-serif" font-size="8" fill="#767676">Aug</text>
<rect x="402" y="18" width="10" height="10" fill="#ebedf0" rx="2" ry="2"><title>2008-08-03: 0 entries</title></rect>
<rect x="402" y="30" width="10" height="10" fill="#ebedf0" rx="2" ry="2"><title>2008-08-04: 0 entries</title></rect>
<rect x="402" y="42" width="10" height="10" fill="#ebedf0" rx="2" ry="2"><title>2008-08-05: 0 entries</title></rect>
<rect x="402" y="54" width="10" height="10" fill="#ebedf0" rx="2" ry="2"><title>2008-08-06: 0 entries</title></rect>
<rect x="402" y="66" width="10" height="10" fill="#ebedf0" rx="2" ry="2"><title>2008-08-07: 0 entries</title></rect>
<rect x="402" y="78" width="10" height="10" fill="#ebedf0" rx="2" ry="2"><title>2008-08-08: 0 entries</title></rect>
<rect x="402" y="90" width="10" height="10" fill="#ebedf0" rx="2" ry="2"><title>2008-08-09: 0 entries</title></rect>
<rect x="414" y="18" width="10" height="10" fill="#ebedf0" rx="2" ry="2"><title>2008-08-10: 0 entries</title></rect>
<rect x="414" y="30" width="10" height="10" fill="#ebedf0" rx="2" ry="2"><title>2008-08-11: 0 entries</title></rect>
<rect x="414" y="42" width="10" height="10" fill="#ebedf0" rx="2" ry="2"><title>2008-08-12: 0 entries</title></rect>
<rect x="414" y="54" width="10" height="10" fill="#ebedf0" rx="2" ry="2"><title>2008-08-13: 0 entries</title></rect>
<rect x="414" y="66" width="10" height="10" fill="#ebedf0" rx="2" ry="2"><title>2008-08-14: 0 entries</title></rect>
<rect x="414" y="78" width="10" height="10" fill="#ebedf0" rx="2" ry="2"><title>2008-08-15: 0 entries</title></rect>
<rect x="414" y="90" width="10" height="10" fill="#ebedf0" rx="2" ry="2"><title>2008-08-16: 0 entries</title></rect>
<rect x="426" y="18" width="10" height="10" fill="#ebedf0" rx="2" ry="2"><title>2008-08-17: 0 entries</title></rect>
<rect x="426" y="30" width="10" height="10" fill="#ebedf0" rx="2" ry="2"><title>2008-08-18: 0 entries</title></rect>
<rect x="426" y="42" width="10" height="10" fill="#ebedf0" rx="2" ry="2"><title>2008-08-19: 0 entries</title></rect>
<a href="https://saiht.de/blog/2008/08/20/noch-immer-in-deutschland/"><rect x="426" y="54" width="10" height="10" fill="#40c463" rx="2" ry="2"><title>2008-08-20: 1 entry
noch immer in Deutschland</title></rect></a>
<rect x="426" y="66" width="10" height="10" fill="#ebedf0" rx="2" ry="2"><title>2008-08-21: 0 entries</title></rect>
<rect x="426" y="78" width="10" height="10" fill="#ebedf0" rx="2" ry="2"><title>2008-08-22: 0 entries</title></rect>
<rect x="426" y="90" width="10" height="10" fill="#ebedf0" rx="2" ry="2"><title>2008-08-23: 0 entries</title></rect>
<rect x="438" y="18" width="10" height="10" fill="#ebedf0" rx="2" ry="2"><title>2008-08-24: 0 entries</title></rect>
<rect x="438" y="30" width="10" height="10" fill="#ebedf0" rx="2" ry="2"><title>2008-08-25: 0 entries</title></rect>
<rect x="438" y="42" width="10" height="10" fill="#ebedf0" rx="2" ry="2"><title>2008-08-26: 0 entries</title></rect>
<rect x="438" y="54" width="10" height="10" fill="#ebedf0" rx="2" ry="2"><title>2008-08-27: 0 entries</title></rect>
<rect x="438" y="66" width="10" height="10" fill="#ebedf0" rx="2" ry="2"><title>2008-08-28: 0 entries</title></rect>
<rect x="438" y="78" width="10" height="10" fill="#ebedf0" rx="2" ry="2"><title>2008-08-29: 0 entries</title></rect>
<rect x="438" y="90" width="10" height="10" fill="#ebedf0" rx="2" ry="2"><title>2008-08-30: 0 entries</title></rect>
<rect x="450" y="18" width="10" height="10" fill="#ebedf0" rx="2" ry="2"><title>2008-08-31: 0 entries</title></rect>
<rect x="450" y="30" width="10" height="10" fill="#ebedf0" rx="2" ry="2"><title>2008-09-01: 0 entries</title></rect>
<rect x="450" y="42" width="10" height="10" fill="#ebedf0" rx="2" ry="2"><title>2008-09-02: 0 entries</title></rect>
<rect x="450" y="54" width="10" height="10" fill="#ebedf0" rx="2" ry="2"><title>2008-09-03: 0 entries</title></rect>
<rect x="450" y="66" width="10" height="10" fill="#ebedf0" rx="2" ry="2"><title>2008-09-04: 0 entries</title></rect>
<rect x="450" y="78" width="10" height="10" fill="#ebedf0" rx="2" ry="2"><title>2008-09-05: 0 entries</title></rect>
<rect x="450" y="90" width="10" height="10" fill="#ebedf0" rx="2" ry="2"><title>2008-09-06: 0 entries</title></rect>
<text x="462" y="12" font-family="sans-serif" font-size="8" fill="#767676">Sep</text>
<rect x="462" y="18" width="10" height="10" fill="#ebedf0" rx="2" ry="2"><title>2008-09-07: 0 entries</title></rect>
<rect x="462" y="30" width="10" height="10" fill="#ebedf0" rx="2" ry="2"><title>2008-09-08: 0 entries</title></rect>
<rect x="462" y="42" width="10" height="10" fill="#ebedf0" rx="2" ry="2"><title>2008-09-09: 0 entries</title></rect>
<rect x="462" y="54" width="10" height="10" fill="#ebedf0" rx="2" ry="2"><title>2008-09-10: 0 entries</title></rect>
<rect x="462" y="66" width="10" height="10" fill="#ebedf0" rx="2" ry="2"><title>2008-09-11: 0 entries</title></rect>
<rect x="462" y="78" width="10" height="10" fill="#ebedf0" rx="2" ry="2"><title>2008-09-12: 0 entries</title></rect>
<rect x="462" y="90" width="10" height="10" fill="#ebedf0" rx="2" ry="2"><title>2008-09-13: 0 entries</title></rect>
<rect x="474" y="18" width="10" height="10" fill="#ebedf0" rx="2" ry="2"><title>2008-09-14: 0 entries</title></rect>
<rect x="474" y="30" width="10" height="10" fill="#ebedf0" rx="2" ry="2"><title>2008-09-15: 0 entries</title></rect>
<rect x="474" y="42" width="10" height="10" fill="#ebedf0" rx="2" ry="2"><title>2008-09-16: 0 entries</title></rect>
<rect x="474" y="54" width="10" height="10" fill="#ebedf0" rx="2" ry="2"><title>2008-09-17: 0 entries</title></rect>
<rect x="474" y="66" width="10" height="10" fill="#ebedf0" rx="2" ry="2"><title>2008-09-18: 0 entries</title></rect>
<rect x="474" y="78" width="10" height="10" fill="#ebedf0" rx="2" ry="2"><title>2008-09-19: 0 entries</title></rect>
<rect x="474" y="90" width="10" height="10" fill="#ebedf0" rx="2" ry="2"><title>2008-09-20: 0 entries</title></rect>
<rect x="486" y="18" width="10" height="10" fill="#ebedf0" rx="2" ry="2"><title>2008-09-21: 0 entries</title></rect>
<rect x="486" y="30" width="10" height="10" fill="#ebedf0" rx="2" ry="2"><title>2008-09-22: 0 entries</title></rect>
<rect x="486" y="42" width="10" height="10" fill="#ebedf0" rx="2" ry="2"><title>2008-09-23: 0 entries</title></rect>
<a href="https://saiht.de/blog/2008/09/24/freies-blog-bei-wordpress/"><rect x="486" y="54" width="10" height="10" fill="#40c463" rx="2" ry="2"><title>2008-09-24: 1 entry
Freies Blog bei WordPress</title></rect></a>
<a href="https://saiht.de/blog/2008/09/25/hier-bei-werner/"><rect x="486" y="66" width="10" height="10" fill="#40c463" rx="2" ry="2"><title>2008-09-25: 1 entry
Hier bei Werner</title></rect></a>
<rect x="486" y="78" width="10" height="10" fill="#ebedf0" rx="2" ry="2"><title>2008-09-26: 0 entries</title></rect>
<rect x="486" y="90" width="10" height="10" fill="#ebedf0" rx="2" ry="2"><title>2008-09-27: 0 entries</title></rect>
<rect x="498" y="18" width="10" height="10" fill="#ebedf0" rx="2" ry="2"><title>2008-09-28: 0 entries</title></rect>
<rect x="498" y="30" width="10" height="10" fill="#ebedf0" rx="2" ry="2"><title>2008-09-29: 0 entries</title></rect>
<rect x="498" y="42" width="10" height="10" fill="#ebedf0" rx="2" ry="2"><title>2008-09-30: 0 entries</title></rect>
<a href="https://saiht.de/legacy/projekte/04ledigsein.html"><rect x="498" y="54" width="10" height="10" fill="#90caf9" rx="2" ry="2"><title>2008-10-01: 1 entry
Grnde fr das Ledigsein</title></rect></a>
<a href="https://saiht.de/blog/2008/10/02/krank-zum-unpassenden-zeitpunkt/"><rect x="498" y="66" width="10" height="10" fill="#40c463" rx="2" ry="2"><title>2008-10-02: 1 entry
Krank zum unpassenden Zeitpunkt</title></rect></a>
<rect x="498" y="78" width="10" height="10" fill="#ebedf0" rx="2" ry="2"><title>2008-10-03: 0 entries</title></rect>
<rect x="498" y="90" width="10" height="10" fill="#ebedf0" rx="2" ry="2"><title>2008-10-04: 0 entries</title></rect>
<text x="510" y="12" font-family="sans-serif" font-size="8" fill="#767676">Oct</text>
<rect x="510" y="18" width="10" height="10" fill="#ebedf0" rx="2" ry="2"><title>2008-10-05: 0 entries</title></rect>
<rect x="510" y="30" width="10" height="10" fill="#ebedf0" rx="2" ry="2"><title>2008-10-06: 0 entries</title></rect>
<rect x="510" y="42" width="10" height="10" fill="#ebedf0" rx="2" ry="2"><title>2008-10-07: 0 entries</title></rect>
<rect x="510" y="54" width="10" height="10" fill="#ebedf0" rx="2" ry="2"><title>2008-10-08: 0 entries</title></rect>
<rect x="510" y="66" width="10" height="10" fill="#ebedf0" rx="2" ry="2"><title>2008-10-09: 0 entries</title></rect>
<rect x="510" y="78" width="10" height="10" fill="#ebedf0" rx="2" ry="2"><title>2008-10-10: 0 entries</title></rect>
<rect x="510" y="90" width="10" height="10" fill="#ebedf0" rx="2" ry="2"><title>2008-10-11: 0 entries</title></rect>
<rect x="522" y="18" width="10" height="10" fill="#ebedf0" rx="2" ry="2"><title>2008-10-12: 0 entries</title></rect>
<rect x="522" y="30" width="10" height="10" fill="#ebedf0" rx="2" ry="2"><title>2008-10-13: 0 entries</title></rect>
<rect x="522" y="42" width="10" height="10" fill="#ebedf0" rx="2" ry="2"><title>2008-10-14: 0 entries</title></rect>
<a href="https://saiht.de/blog/2008/10/15/zuruck-aus-dem-urlaub/"><rect x="522" y="54" width="10" height="10" fill="#40c463" rx="2" ry="2"><title>2008-10-15: 1 entry
Zurück aus dem Urlaub in der Hohen Tatra</title></rect></a>
<rect x="522" y="66" width="10" height="10" fill="#ebedf0" rx="2" ry="2"><title>2008-10-16: 0 entries</title></rect>
<rect x="522" y="78" width="10" height="10" fill="#ebedf0" rx="2" ry="2"><title>2008-10-17: 0 entries</title></rect>
<rect x="522" y="90" width="10" height="10" fill="#ebedf0" rx="2" ry="2"><title>2008-10-18: 0 entries</title></rect>
<rect x="534" y="18" width="10" height="10" fill="#ebedf0" rx="2" ry="2"><title>2008-10-19: 0 entries</title></rect>
<rect x="534" y="30" width="10" height="10" fill="#ebedf0" rx="2" ry="2"><title>2008-10-20: 0 entries</title></rect>
<rect x="534" y="42" width="10" height="10" fill="#ebedf0" rx="2" ry="2"><title>2008-10-21: 0 entries</title></rect>
<rect x="534" y="54" width="10" height="10" fill="#ebedf0" rx="2" ry="2"><title>2008-10-22: 0 entries</title></rect>
<rect x="534" y="66" width="10" height="10" fill="#ebedf0" rx="2" ry="2"><title>2008-10-23: 0 entries</title></rect>
<rect x="534" y="78" width="10" height="10" fill="#ebedf0" rx="2" ry="2"><title>2008-10-24: 0 entries</title></rect>
<rect x="534" y="90" width="10" height="10" fill="#ebedf0" rx="2" ry="2"><title>2008-10-25: 0 entries</title></rect>
<rect x="546" y="18" width="10" height="10" fill="#ebedf0" rx="2" ry="2"><title>2008-10-26: 0 entries</title></rect>
<rect x="546" y="30" width="10" height="10" fill="#ebedf0" rx="2" ry="2"><title>2008-10-27: 0 entries</title></rect>
<rect x="546" y="42" width="10" height="10" fill="#ebedf0" rx="2" ry="2"><title>2008-10-28: 0 entries</title></rect>
<rect x="546" y="54" width="10" height="10" fill="#ebedf0" rx="2" ry="2"><title>2008-10-29: 0 entries</title></rect>
<rect x="546" y="66" width="10" height="10" fill="#ebedf0" rx="2" ry="2"><title>2008-10-30: 0 entries</title></rect>
<rect x="546" y="78" width="10" height="10" fill="#ebedf0" rx="2" ry="2"><title>2008-10-31: 0 entries</title></rect>
<rect x="546" y="90" width="10" height="10" fill="#ebedf0" rx="2" ry="2"><title>2008-11-01: 0 entries</title></rect>
<text x="558" y="12" font-family="sans-serif" font-size="8" fill="#767676">Nov</text>
<rect x="558" y="18" width="10" height="10" fill="#ebedf0" rx="2" ry="2"><title>2008-11-02: 0 entries</title></rect>
<a href="https://saiht.de/legacy/glossar/family.html"><rect x="558" y="30" width="10" height="10" fill="#90caf9" rx="2" ry="2"><title>2008-11-03: 1 entry
Familie</title></rect></a>
<rect x="558" y="42" width="10" height="10" fill="#ebedf0" rx="2" ry="2"><title>2008-11-04: 0 entries</title></rect>
<rect x="558" y="54" width="10" height="10" fill="#ebedf0" rx="2" ry="2"><title>2008-11-05: 0 entries</title></rect>
<rect x="558" y="66" width="10" height="10" fill="#ebedf0" rx="2" ry="2"><title>2008-11-06: 0 entries</title></rect>
<rect x="558" y="78" width="10" height="10" fill="#ebedf0" rx="2" ry="2"><title>2008-11-07: 0 entries</title></rect>
<rect x="558" y="90" width="10" height="10" fill="#ebedf0" rx="2" ry="2"><title>2008-11-08: 0 entries</title></rect>
<rect x="570" y="18" width="10" height="10" fill="#ebedf0" rx="2" ry="2"><title>2008-11-09: 0 entries</title></rect>
<rect x="570" y="30" width="10" height="10" fill="#ebedf0" rx="2" ry="2"><title>2008-11-10: 0 entries</title></rect>
<rect x="570" y="42" width="10" height="10" fill="#ebedf0" rx="2" ry="2"><title>2008-11-11: 0 entries</title></rect>
<rect x="570" y="54" width="10" height="10" fill="#ebedf0" rx="2" ry="2"><title>2008-11-12: 0 entries</title></rect>
<rect x="570" y="66" width="10" height="10" fill="#ebedf0" rx="2" ry="2"><title>2008-11-13: 0 entries</title></rect>
<rect x="570" y="78" width="10" height="10" fill="#ebedf0" rx="2" ry="2"><title>2008-11-14: 0 entries</title></rect>
<rect x="570" y="90" width="10" height="10" fill="#ebedf0" rx="2" ry="2"><title>2008-11-15: 0 entries</title></rect>
<rect x="582" y="18" width="10" height="10" fill="#ebedf0" rx="2" ry="2"><title>2008-11-16: 0 entries</title></rect>
<rect x="582" y="30" width="10" height="10" fill="#ebedf0" rx="2" ry="2"><title>2008-11-17: 0 entries</title></rect>
<rect x="582" y="42" width="10" height="10" fill="#ebedf0" rx="2" ry="2"><title>2008-11-18: 0 entries</title></rect>
<rect x="582" y="54" width="10" height="10" fill="#ebedf0" rx="2" ry="2"><title>2008-11-19: 0 entries</title></rect>
<rect x="582" y="66" width="10" height="10" fill="#ebedf0" rx="2" ry="2"><title>2008-11-20: 0 entries</title></rect>
<rect x="582" y="78" width="10" height="10" fill="#ebedf0" rx="2" ry="2"><title>2008-11-21: 0 entries</title></rect>
<rect x="582" y="90" width="10" height="10" fill="#ebedf0" rx="2" ry="2"><title>2008-11-22: 0 entries</title></rect>
<rect x="594" y="18" width="10" height="10" fill="#ebedf0" rx="2" ry="2"><title>2008-11-23: 0 entries</title></rect>
<rect x="594" y="30" width="10" height="10" fill="#ebedf0" rx="2" ry="2"><title>2008-11-24: 0 entries</title></rect>
<rect x="594" y="42" width="10" height="10" fill="#ebedf0" rx="2" ry="2"><title>2008-11-25: 0 entries</title></rect>
<rect x="594" y="54" width="10" height="10" fill="#ebedf0" rx="2" ry="2"><title>2008-11-26: 0 entries</title></rect>
<rect x="594" y="66" width="10" height="10" fill="#ebedf0" rx="2" ry="2"><title>2008-11-27: 0 entries</title></rect>
<rect x="594" y="78" width="10" height="10" fill="#ebedf0" rx="2" ry="2"><title>2008-11-28: 0 entries</title></rect>
<rect x="594" y="90" width="10" height="10" fill="#ebedf0" rx="2" ry="2"><title>2008-11-29: 0 entries</title></rect>
<rect x="606" y="18" width="10" height="10" fill="#ebedf0" rx="2" ry="2"><title>2008-11-30: 0 entries</title></rect>
<rect x="606" y="30" width="10" height="10" fill="#ebedf0" rx="2" ry="2"><title>2008-12-01: 0 entries</title></rect>
<rect x="606" y="42" width="10" height="10" fill="#ebedf0" rx="2" ry="2"><title>2008-12-02: 0 entries</title></rect>
<rect x="606" y="54" width="10" height="10" fill="#ebedf0" rx="2" ry="2"><title>2008-12-03: 0 entries</title></rect>
<rect x="606" y="66" width="10" height="10" fill="#ebedf0" rx="2" ry="2"><title>2008-12-04: 0 entries</title></rect>
<a href="https://saiht.de/legacy/urlaub/2008_usa_bilder.html"><rect x="606" y="78" width="10" height="10" fill="#90caf9" rx="2" ry="2"><title>2008-12-05: 1 entry
Die Ostküste der USA: Florida und New York</title></rect></a>
<rect x="606" y="90" width="10" height="10" fill="#ebedf0" rx="2" ry="2"><title>2008-12-06: 0 entries</title></rect>
<text x="618" y="12" font-family="sans-serif" font-size="8" fill="#767676">Dec</text>
<rect x="618" y="18" width="10" height="10" fill="#ebedf0" rx="2" ry="2"><title>2008-12-07: 0 entries</title></rect>
<rect x="618" y="30" width="10" height="10" fill="#ebedf0" rx="2" ry="2"><title>2008-12-08: 0 entries</title></rect>
<rect x="618" y="42" width="10" height="10" fill="#ebedf0" rx="2" ry="2"><title>2008-12-09: 0 entries</title></rect>
<a href="https://saiht.de/blog/2008/12/10/zuruck-aus-amerika/"><rect x="618" y="54" width="10" height="10" fill="#40c463" rx="2" ry="2"><title>2008-12-10: 1 entry
Zurück aus Amerika</title></rect></a>
<rect x="618" y="66" width="10" height="10" fill="#ebedf0" rx="2" ry="2"><title>2008-12-11: 0 entries</title></rect>
<rect x="618" y="78" width="10" height="10" fill="#ebedf0" rx="2" ry="2"><title>2008-12-12: 0 entries</title></rect>
<rect x="618" y="90" width="10" height="10" fill="#ebedf0" rx="2" ry="2"><title>2008-12-13: 0 entries</title></rect>
<a href="https://saiht.de/legacy/freizeit/einzelevents.html"><rect x="630" y="18" width="10" height="10" fill="#90caf9" rx="2" ry="2"><title>2008-12-14: 1 entry
Einzelevents</title></rect></a>
<rect x="630" y="30" width="10" height="10" fill="#ebedf0" rx="2" ry="2"><title>2008-12-15: 0 entries</title></rect>
<rect x="630" y="42" width="10" height="10" fill="#ebedf0" rx="2" ry="2"><title>2008-12-16: 0 entries</title></rect>
<rect x="630" y="54" width="10" height="10" fill="#ebedf0" rx="2" ry="2"><title>2008-12-17: 0 entries</title></rect>
<rect x="630" y="66" width="10" height="10" fill="#ebedf0" rx="2" ry="2"><title>2008-12-18: 0 entries</title></rect>
<rect x="630" y="78" width="10" height="10" fill="#ebedf0" rx="2" ry="2"><title>2008-12-19: 0 entries</title></rect>
<rect x="630" y="90" width="10" height="10" fill="#ebedf0" rx="2" ry="2"><title>2008-12-20: 0 entries</title></rect>
<rect x="642" y="18" width="10" height="10" fill="#ebedf0" rx="2" ry="2"><title>2008-12-21: 0 entries</title></rect>
<rect x="642" y="30" width="10" height="10" fill="#ebedf0" rx="2" ry="2"><title>2008-12-22: 0 entries</title></rect>
<rect x="642" y="42" width="10" height="10" fill="#ebedf0" rx="2" ry="2"><title>2008-12-23: 0 entries</title></rect>
<rect x="642" y="54" width="10" height="10" fill="#ebedf0" rx="2" ry="2"><title>2008-12-24: 0 entries</title></rect>
<rect x="642" y="66" width="10" height="10" fill="#ebedf0" rx="2" ry="2"><title>2008-12-25: 0 entries</title></rect>
<rect x="642" y="78" width="10" height="10" fill="#ebedf0" rx="2" ry="2"><title>2008-12-26: 0 entries</title></rect>
<rect x="642" y="90" width="10" height="10" fill="#ebedf0" rx="2" ry="2"><title>2008-12-27: 0 entries</title></rect>
<a href="https://saiht.de/blog/2008/12/28/man-liest-mich/"><rect x="654" y="18" width="10" height="10" fill="#40c463" rx="2" ry="2"><title>2008-12-28: 1 entry
Man liest mich</title></rect></a>
<rect x="654" y="30" width="10" height="10" fill="#ebedf0" rx="2" ry="2"><title>2008-12-29: 0 entries</title></rect>
<rect x="654" y="42" width="10" height="10" fill="#ebedf0" rx="2" ry="2"><title>2008-12-30: 0 entries</title></rect>
<rect x="654" y="54" width="10" height="10" fill="#ebedf0" rx="2" ry="2"><title>2008-12-31: 0 entries</title></rect>
<rect x="30" y="112" width="8" height="8" fill="#30a14e" rx="1" ry="1"/>
<text x="42" y="119" font-family="sans-serif" font-size="7" fill="#767676">WordPress</text>
<rect x="100" y="112" width="8" height="8" fill="#e57373" rx="1" ry="1"/>
<text x="112" y="119" font-family="sans-serif" font-size="7" fill="#767676">Quartz</text>
<rect x="170" y="112" width="8" height="8" fill="#64b5f6" rx="1" ry="1"/>
<text x="182" y="119" font-family="sans-serif" font-size="7" fill="#767676">Legacy HTML</text>
<rect x="240" y="112" width="8" height="8" fill="#ffa726" rx="1" ry="1"/>
<text x="252" y="119" font-family="sans-serif" font-size="7" fill="#767676">GitHub</text>
</svg>