<svg width="676" height="124" xmlns="http://www.w3.org/2000/svg" style="background-color: white;">
<text x="5" y="39" font-family="sans-serif" font-size="8" fill="#767676">Mon</text>
<text x="5" y="63" font-family="sans-serif" font-size="8" fill="#767676">Wed</text>
<text x="5" y="87" font-family="sans-serif" font-size="8" fill="#767676">Fri</text>
<a href="https://kreier.github.io/quartz/Diary/2007"><rect x="30" y="30" width="10" height="10" fill="#ef5350" rx="2" ry="2"><title>2007-01-01: 1 entry
2007</title></rect></a>
<rect x="30" y="42" width="10" height="10" fill="#ebedf0" rx="2" ry="2"><title>2007-01-02: 0 entries</title></rect>
<rect x="30" y="54" width="10" height="10" fill="#ebedf0" rx="2" ry="2"><title>2007-01-03: 0 entries</title></rect>
<rect x="30" y="66" width="10" height="10" fill="#ebedf0" rx="2" ry="2"><title>2007-01-04: 0 entries</title></rect>
<rect x="30" y="78" width="10" height="10" fill="#ebedf0" rx="2" ry="2"><title>2007-01-05: 0 entries</title></rect>
<rect x="30" y="90" width="10" height="10" fill="#ebedf0" rx="2" ry="2"><title>2007-01-06: 0 entries</title></rect>
<text x="42" y="12" font-family="sans-serif" font-size="8" fill="#767676">Jan</text>
<rect x="42" y="18" width="10" height="10" fill="#ebedf0" rx="2" ry="2"><title>2007-01-07: 0 entries</title></rect>
<rect x="42" y="30" width="10" height="10" fill="#ebedf0" rx="2" ry="2"><title>2007-01-08: 0 entries</title></rect>
<rect x="42" y="42" width="10" height="10" fill="#ebedf0" rx="2" ry="2"><title>2007-01-09: 0 entries</title></rect>
<rect x="42" y="54" width="10" height="10" fill="#ebedf0" rx="2" ry="2"><title>2007-01-10: 0 entries</title></rect>
<rect x="42" y="66" width="10" height="10" fill="#ebedf0" rx="2" ry="2"><title>2007-01-11: 0 entries</title></rect>
<rect x="42" y="78" width="10" height="10" fill="#ebedf0" rx="2" ry="2"><title>2007-01-12: 0 entries</title></rect>
<rect x="42" y="90" width="10" height="10" fill="#ebedf0" rx="2" ry="2"><title>2007-01-13: 0 entries</title></rect>
<rect x="54" y="18" width="10" height="10" fill="#ebedf0" rx="2" ry="2"><title>2007-01-14: 0 entries</title></rect>
<rect x="54" y="30" width="10" height="10" fill="#ebedf0" rx="2" ry="2"><title>2007-01-15: 0 entries</title></rect>
<rect x="54" y="42" width="10" height="10" fill="#ebedf0" rx="2" ry="2"><title>2007-01-16: 0 entries</title></rect>
<rect x="54" y="54" width="10" height="10" fill="#ebedf0" rx="2" ry="2"><title>2007-01-17: 0 entries</title></rect>
<rect x="54" y="66" width="10" height="10" fill="#ebedf0" rx="2" ry="2"><title>2007-01-18: 0 entries</title></rect>
<rect x="54" y="78" width="10" height="10" fill="#ebedf0" rx="2" ry="2"><title>2007-01-19: 0 entries</title></rect>
<rect x="54" y="90" width="10" height="10" fill="#ebedf0" rx="2" ry="2"><title>2007-01-20: 0 entries</title></rect>
<rect x="66" y="18" width="10" height="10" fill="#ebedf0" rx="2" ry="2"><title>2007-01-21: 0 entries</title></rect>
<rect x="66" y="30" width="10" height="10" fill="#ebedf0" rx="2" ry="2"><title>2007-01-22: 0 entries</title></rect>
<rect x="66" y="42" width="10" height="10" fill="#ebedf0" rx="2" ry="2"><title>2007-01-23: 0 entries</title></rect>
<rect x="66" y="54" width="10" height="10" fill="#ebedf0" rx="2" ry="2"><title>2007-01-24: 0 entries</title></rect>
<rect x="66" y="66" width="10" height="10" fill="#ebedf0" rx="2" ry="2"><title>2007-01-25: 0 entries</title></rect>
<rect x="66" y="78" width="10" height="10" fill="#ebedf0" rx="2" ry="2"><title>2007-01-26: 0 entries</title></rect>
<rect x="66" y="90" width="10" height="10" fill="#ebedf0" rx="2" ry="2"><title>2007-01-27: 0 entries</title></rect>
<rect x="78" y="18" width="10" height="10" fill="#ebedf0" rx="2" ry="2"><title>2007-01-28: 0 entries</title></rect>
<rect x="78" y="30" width="10" height="10" fill="#ebedf0" rx="2" ry="2"><title>2007-01-29: 0 entries</title></rect>
<rect x="78" y="42" width="10" height="10" fill="#ebedf0" rx="2" ry="2"><title>2007-01-30: 0 entries</title></rect>
<rect x="78" y="54" width="10" height="10" fill="#ebedf0" rx="2" ry="2"><title>2007-01-31: 0 entries</title></rect>
<rect x="78" y="66" width="10" height="10" fill="#ebedf0" rx="2" ry="2"><title>2007-02-01: 0 entries</title></rect>
<rect x="78" y="78" width="10" height="10" fill="#ebedf0" rx="2" ry="2"><title>2007-02-02: 0 entries</title></rect>
<rect x="78" y="90" width="10" height="10" fill="#ebedf0" rx="2" ry="2"><title>2007-02-03: 0 entries</title></rect>
<text x="90" y="12" font-family="sans-serif" font-size="8" fill="#767676">Feb</text>
<rect x="90" y="18" width="10" height="10" fill="#ebedf0" rx="2" ry="2"><title>2007-02-04: 0 entries</title></rect>
<rect x="90" y="30" width="10" height="10" fill="#ebedf0" rx="2" ry="2"><title>2007-02-05: 0 entries</title></rect>
<rect x="90" y="42" width="10" height="10" fill="#ebedf0" rx="2" ry="2"><title>2007-02-06: 0 entries</title></rect>
<rect x="90" y="54" width="10" height="10" fill="#ebedf0" rx="2" ry="2"><title>2007-02-07: 0 entries</title></rect>
<rect x="90" y="66" width="10" height="10" fill="#ebedf0" rx="2" ry="2"><title>2007-02-08: 0 entries</title></rect>
<rect x="90" y="78" width="10" height="10" fill="#ebedf0" rx="2" ry="2"><title>2007-02-09: 0 entries</title></rect>
<rect x="90" y="90" width="10" height="10" fill="#ebedf0" rx="2" ry="2"><title>2007-02-10: 0 entries</title></rect>
<rect x="102" y="18" width="10" height="10" fill="#ebedf0" rx="2" ry="2"><title>2007-02-11: 0 entries</title></rect>
<rect x="102" y="30" width="10" height="10" fill="#ebedf0" rx="2" ry="2"><title>2007-02-12: 0 entries</title></rect>
<rect x="102" y="42" width="10" height="10" fill="#ebedf0" rx="2" ry="2"><title>2007-02-13: 0 entries</title></rect>
<rect x="102" y="54" width="10" height="10" fill="#ebedf0" rx="2" ry="2"><title>2007-02-14: 0 entries</title></rect>
<rect x="102" y="66" width="10" height="10" fill="#ebedf0" rx="2" ry="2"><title>2007-02-15: 0 entries</title></rect>
<rect x="102" y="78" width="10" height="10" fill="#ebedf0" rx="2" ry="2"><title>2007-02-16: 0 entries</title></rect>
<rect x="102" y="90" width="10" height="10" fill="#ebedf0" rx="2" ry="2"><title>2007-02-17: 0 entries</title></rect>
<rect x="114" y="18" width="10" height="10" fill="#ebedf0" rx="2" ry="2"><title>2007-02-18: 0 entries</title></rect>
<rect x="114" y="30" width="10" height="10" fill="#ebedf0" rx="2" ry="2"><title>2007-02-19: 0 entries</title></rect>
<rect x="114" y="42" width="10" height="10" fill="#ebedf0" rx="2" ry="2"><title>2007-02-20: 0 entries</title></rect>
<rect x="114" y="54" width="10" height="10" fill="#ebedf0" rx="2" ry="2"><title>2007-02-21: 0 entries</title></rect>
<rect x="114" y="66" width="10" height="10" fill="#ebedf0" rx="2" ry="2"><title>2007-02-22: 0 entries</title></rect>
<rect x="114" y="78" width="10" height="10" fill="#ebedf0" rx="2" ry="2"><title>2007-02-23: 0 entries</title></rect>
<rect x="114" y="90" width="10" height="10" fill="#ebedf0" rx="2" ry="2"><title>2007-02-24: 0 entries</title></rect>
<rect x="126" y="18" width="10" height="10" fill="#ebedf0" rx="2" ry="2"><title>2007-02-25: 0 entries</title></rect>
<rect x="126" y="30" width="10" height="10" fill="#ebedf0" rx="2" ry="2"><title>2007-02-26: 0 entries</title></rect>
<rect x="126" y="42" width="10" height="10" fill="#ebedf0" rx="2" ry="2"><title>2007-02-27: 0 entries</title></rect>
<rect x="126" y="54" width="10" height="10" fill="#ebedf0" rx="2" ry="2"><title>2007-02-28: 0 entries</title></rect>
<rect x="126" y="66" width="10" height="10" fill="#ebedf0" rx="2" ry="2"><title>2007-03-01: 0 entries</title></rect>
<rect x="126" y="78" width="10" height="10" fill="#ebedf0" rx="2" ry="2"><title>2007-03-02: 0 entries</title></rect>
<rect x="126" y="90" width="10" height="10" fill="#ebedf0" rx="2" ry="2"><title>2007-03-03: 0 entries</title></rect>
<text x="138" y="12" font-family="sans-serif" font-size="8" fill="#767676">Mar</text>
<rect x="138" y="18" width="10" height="10" fill="#ebedf0" rx="2" ry="2"><title>2007-03-04: 0 entries</title></rect>
<rect x="138" y="30" width="10" height="10" fill="#ebedf0" rx="2" ry="2"><title>2007-03-05: 0 entries</title></rect>
<rect x="138" y="42" width="10" height="10" fill="#ebedf0" rx="2" ry="2"><title>2007-03-06: 0 entries</title></rect>
<rect x="138" y="54" width="10" height="10" fill="#ebedf0" rx="2" ry="2"><title>2007-03-07: 0 entries</title></rect>
<rect x="138" y="66" width="10" height="10" fill="#ebedf0" rx="2" ry="2"><title>2007-03-08: 0 entries</title></rect>
<rect x="138" y="78" width="10" height="10" fill="#ebedf0" rx="2" ry="2"><title>2007-03-09: 0 entries</title></rect>
<rect x="138" y="90" width="10" height="10" fill="#ebedf0" rx="2" ry="2"><title>2007-03-10: 0 entries</title></rect>
<rect x="150" y="18" width="10" height="10" fill="#ebedf0" rx="2" ry="2"><title>2007-03-11: 0 entries</title></rect>
<rect x="150" y="30" width="10" height="10" fill="#ebedf0" rx="2" ry="2"><title>2007-03-12: 0 entries</title></rect>
<rect x="150" y="42" width="10" height="10" fill="#ebedf0" rx="2" ry="2"><title>2007-03-13: 0 entries</title></rect>
<rect x="150" y="54" width="10" height="10" fill="#ebedf0" rx="2" ry="2"><title>2007-03-14: 0 entries</title></rect>
<rect x="150" y="66" width="10" height="10" fill="#ebedf0" rx="2" ry="2"><title>2007-03-15: 0 entries</title></rect>
<rect x="150" y="78" width="10" height="10" fill="#ebedf0" rx="2" ry="2"><title>2007-03-16: 0 entries</title></rect>
<rect x="150" y="90" width="10" height="10" fill="#ebedf0" rx="2" ry="2"><title>2007-03-17: 0 entries</title></rect>
<rect x="162" y="18" width="10" height="10" fill="#ebedf0" rx="2" ry="2"><title>2007-03-18: 0 entries</title></rect>
<rect x="162" y="30" width="10" height="10" fill="#ebedf0" rx="2" ry="2"><title>2007-03-19: 0 entries</title></rect>
<rect x="162" y="42" width="10" height="10" fill="#ebedf0" rx="2" ry="2"><title>2007-03-20: 0 entries</title></rect>
<rect x="162" y="54" width="10" height="10" fill="#ebedf0" rx="2" ry="2"><title>2007-03-21: 0 entries</title></rect>
<rect x="162" y="66" width="10" height="10" fill="#ebedf0" rx="2" ry="2"><title>2007-03-22: 0 entries</title></rect>
<rect x="162" y="78" width="10" height="10" fill="#ebedf0" rx="2" ry="2"><title>2007-03-23: 0 entries</title></rect>
<rect x="162" y="90" width="10" height="10" fill="#ebedf0" rx="2" ry="2"><title>2007-03-24: 0 entries</title></rect>
<rect x="174" y="18" width="10" height="10" fill="#ebedf0" rx="2" ry="2"><title>2007-03-25: 0 entries</title></rect>
<rect x="174" y="30" width="10" height="10" fill="#ebedf0" rx="2" ry="2"><title>2007-03-26: 0 entries</title></rect>
<rect x="174" y="42" width="10" height="10" fill="#ebedf0" rx="2" ry="2"><title>2007-03-27: 0 entries</title></rect>
<rect x="174" y="54" width="10" height="10" fill="#ebedf0" rx="2" ry="2"><title>2007-03-28: 0 entries</title></rect>
<rect x="174" y="66" width="10" height="10" fill="#ebedf0" rx="2" ry="2"><title>2007-03-29: 0 entries</title></rect>
<rect x="174" y="78" width="10" height="10" fill="#ebedf0" rx="2" ry="2"><title>2007-03-30: 0 entries</title></rect>
<rect x="174" y="90" width="10" height="10" fill="#ebedf0" rx="2" ry="2"><title>2007-03-31: 0 entries</title></rect>
<text x="186" y="12" font-family="sans-serif" font-size="8" fill="#767676">Apr</text>
<rect x="186" y="18" width="10" height="10" fill="#ebedf0" rx="2" ry="2"><title>2007-04-01: 0 entries</title></rect>
<rect x="186" y="30" width="10" height="10" fill="#ebedf0" rx="2" ry="2"><title>2007-04-02: 0 entries</title></rect>
<rect x="186" y="42" width="10" height="10" fill="#ebedf0" rx="2" ry="2"><title>2007-04-03: 0 entries</title></rect>
<rect x="186" y="54" width="10" height="10" fill="#ebedf0" rx="2" ry="2"><title>2007-04-04: 0 entries</title></rect>
<rect x="186" y="66" width="10" height="10" fill="#ebedf0" rx="2" ry="2"><title>2007-04-05: 0 entries</title></rect>
<rect x="186" y="78" width="10" height="10" fill="#ebedf0" rx="2" ry="2"><title>2007-04-06: 0 entries</title></rect>
<rect x="186" y="90" width="10" height="10" fill="#ebedf0" rx="2" ry="2"><title>2007-04-07: 0 entries</title></rect>
<a href="https://saiht.de/legacy/projekte/deutsch.html"><rect x="198" y="18" width="10" height="10" fill="#42a5f5" rx="2" ry="2"><title>2007-04-08: 1 entry
Bildung durch Lesen</title></rect></a>
<rect x="198" y="30" width="10" height="10" fill="#ebedf0" rx="2" ry="2"><title>2007-04-09: 0 entries</title></rect>
<rect x="198" y="42" width="10" height="10" fill="#ebedf0" rx="2" ry="2"><title>2007-04-10: 0 entries</title></rect>
<rect x="198" y="54" width="10" height="10" fill="#ebedf0" rx="2" ry="2"><title>2007-04-11: 0 entries</title></rect>
<rect x="198" y="66" width="10" height="10" fill="#ebedf0" rx="2" ry="2"><title>2007-04-12: 0 entries</title></rect>
<rect x="198" y="78" width="10" height="10" fill="#ebedf0" rx="2" ry="2"><title>2007-04-13: 0 entries</title></rect>
<rect x="198" y="90" width="10" height="10" fill="#ebedf0" rx="2" ry="2"><title>2007-04-14: 0 entries</title></rect>
<rect x="210" y="18" width="10" height="10" fill="#ebedf0" rx="2" ry="2"><title>2007-04-15: 0 entries</title></rect>
<rect x="210" y="30" width="10" height="10" fill="#ebedf0" rx="2" ry="2"><title>2007-04-16: 0 entries</title></rect>
<rect x="210" y="42" width="10" height="10" fill="#ebedf0" rx="2" ry="2"><title>2007-04-17: 0 entries</title></rect>
<rect x="210" y="54" width="10" height="10" fill="#ebedf0" rx="2" ry="2"><title>2007-04-18: 0 entries</title></rect>
<rect x="210" y="66" width="10" height="10" fill="#ebedf0" rx="2" ry="2"><title>2007-04-19: 0 entries</title></rect>
<rect x="210" y="78" width="10" height="10" fill="#ebedf0" rx="2" ry="2"><title>2007-04-20: 0 entries</title></rect>
<rect x="210" y="90" width="10" height="10" fill="#ebedf0" rx="2" ry="2"><title>2007-04-21: 0 entries</title></rect>
<rect x="222" y="18" width="10" height="10" fill="#ebedf0" rx="2" ry="2"><title>2007-04-22: 0 entries</title></rect>
<rect x="222" y="30" width="10" height="10" fill="#ebedf0" rx="2" ry="2"><title>2007-04-23: 0 entries</title></rect>
<rect x="222" y="42" width="10" height="10" fill="#ebedf0" rx="2" ry="2"><title>2007-04-24: 0 entries</title></rect>
<rect x="222" y="54" width="10" height="10" fill="#ebedf0" rx="2" ry="2"><title>2007-04-25: 0 entries</title></rect>
<rect x="222" y="66" width="10" height="10" fill="#ebedf0" rx="2" ry="2"><title>2007-04-26: 0 entries</title></rect>
<rect x="222" y="78" width="10" height="10" fill="#ebedf0" rx="2" ry="2"><title>2007-04-27: 0 entries</title></rect>
<rect x="222" y="90" width="10" height="10" fill="#ebedf0" rx="2" ry="2"><title>2007-04-28: 0 entries</title></rect>
<rect x="234" y="18" width="10" height="10" fill="#ebedf0" rx="2" ry="2"><title>2007-04-29: 0 entries</title></rect>
<rect x="234" y="30" width="10" height="10" fill="#ebedf0" rx="2" ry="2"><title>2007-04-30: 0 entries</title></rect>
<rect x="234" y="42" width="10" height="10" fill="#ebedf0" rx="2" ry="2"><title>2007-05-01: 0 entries</title></rect>
<rect x="234" y="54" width="10" height="10" fill="#ebedf0" rx="2" ry="2"><title>2007-05-02: 0 entries</title></rect>
<rect x="234" y="66" width="10" height="10" fill="#ebedf0" rx="2" ry="2"><title>2007-05-03: 0 entries</title></rect>
<rect x="234" y="78" width="10" height="10" fill="#ebedf0" rx="2" ry="2"><title>2007-05-04: 0 entries</title></rect>
<rect x="234" y="90" width="10" height="10" fill="#ebedf0" rx="2" ry="2"><title>2007-05-05: 0 entries</title></rect>
<text x="246" y="12" font-family="sans-serif" font-size="8" fill="#767676">May</text>
<rect x="246" y="18" width="10" height="10" fill="#ebedf0" rx="2" ry="2"><title>2007-05-06: 0 entries</title></rect>
<rect x="246" y="30" width="10" height="10" fill="#ebedf0" rx="2" ry="2"><title>2007-05-07: 0 entries</title></rect>
<rect x="246" y="42" width="10" height="10" fill="#ebedf0" rx="2" ry="2"><title>2007-05-08: 0 entries</title></rect>
<rect x="246" y="54" width="10" height="10" fill="#ebedf0" rx="2" ry="2"><title>2007-05-09: 0 entries</title></rect>
<rect x="246" y="66" width="10" height="10" fill="#ebedf0" rx="2" ry="2"><title>2007-05-10: 0 entries</title></rect>
<rect x="246" y="78" width="10" height="10" fill="#ebedf0" rx="2" ry="2"><title>2007-05-11: 0 entries</title></rect>
<rect x="246" y="90" width="10" height="10" fill="#ebedf0" rx="2" ry="2"><title>2007-05-12: 0 entries</title></rect>
<rect x="258" y="18" width="10" height="10" fill="#ebedf0" rx="2" ry="2"><title>2007-05-13: 0 entries</title></rect>
<rect x="258" y="30" width="10" height="10" fill="#ebedf0" rx="2" ry="2"><title>2007-05-14: 0 entries</title></rect>
<a href="https://saiht.de/legacy/urlaub/2003_elbsandstein.html"><rect x="258" y="42" width="10" height="10" fill="#42a5f5" rx="2" ry="2"><title>2007-05-15: 1 entry
Kurzurlaub im Elbsandsteingebirge</title></rect></a>
<rect x="258" y="54" width="10" height="10" fill="#ebedf0" rx="2" ry="2"><title>2007-05-16: 0 entries</title></rect>
<rect x="258" y="66" width="10" height="10" fill="#ebedf0" rx="2" ry="2"><title>2007-05-17: 0 entries</title></rect>
<rect x="258" y="78" width="10" height="10" fill="#ebedf0" rx="2" ry="2"><title>2007-05-18: 0 entries</title></rect>
<rect x="258" y="90" width="10" height="10" fill="#ebedf0" rx="2" ry="2"><title>2007-05-19: 0 entries</title></rect>
<rect x="270" y="18" width="10" height="10" fill="#ebedf0" rx="2" ry="2"><title>2007-05-20: 0 entries</title></rect>
<rect x="270" y="30" width="10" height="10" fill="#ebedf0" rx="2" ry="2"><title>2007-05-21: 0 entries</title></rect>
<rect x="270" y="42" width="10" height="10" fill="#ebedf0" rx="2" ry="2"><title>2007-05-22: 0 entries</title></rect>
<rect x="270" y="54" width="10" height="10" fill="#ebedf0" rx="2" ry="2"><title>2007-05-23: 0 entries</title></rect>
<rect x="270" y="66" width="10" height="10" fill="#ebedf0" rx="2" ry="2"><title>2007-05-24: 0 entries</title></rect>
<rect x="270" y="78" width="10" height="10" fill="#ebedf0" rx="2" ry="2"><title>2007-05-25: 0 entries</title></rect>
<a href="https://saiht.de/legacy/urlaub/1998_thailand_pic.html"><rect x="270" y="90" width="10" height="10" fill="#42a5f5" rx="2" ry="2"><title>2007-05-26: 1 entry
Thailand &amp; Malaysia - nur die Bilder</title></rect></a>
<rect x="282" y="18" width="10" height="10" fill="#ebedf0" rx="2" ry="2"><title>2007-05-27: 0 entries</title></rect>
<rect x="282" y="30" width="10" height="10" fill="#ebedf0" rx="2" ry="2"><title>2007-05-28: 0 entries</title></rect>
<rect x="282" y="42" width="10" height="10" fill="#ebedf0" rx="2" ry="2"><title>2007-05-29: 0 entries</title></rect>
<rect x="282" y="54" width="10" height="10" fill="#ebedf0" rx="2" ry="2"><title>2007-05-30: 0 entries</title></rect>
<rect x="282" y="66" width="10" height="10" fill="#ebedf0" rx="2" ry="2"><title>2007-05-31: 0 entries</title></rect>
<rect x="282" y="78" width="10" height="10" fill="#ebedf0" rx="2" ry="2"><title>2007-06-01: 0 entries</title></rect>
<rect x="282" y="90" width="10" height="10" fill="#ebedf0" rx="2" ry="2"><title>2007-06-02: 0 entries</title></rect>
<text x="294" y="12" font-family="sans-serif" font-size="8" fill="#767676">Jun</text>
<rect x="294" y="18" width="10" height="10" fill="#ebedf0" rx="2" ry="2"><title>2007-06-03: 0 entries</title></rect>
<rect x="294" y="30" width="10" height="10" fill="#ebedf0" rx="2" ry="2"><title>2007-06-04: 0 entries</title></rect>
<a href="https://saiht.de/legacy/impressum.html"><rect x="294" y="42" width="10" height="10" fill="#42a5f5" rx="2" ry="2"><title>2007-06-05: 1 entry
Impressum</title></rect></a>
<rect x="294" y="54" width="10" height="10" fill="#ebedf0" rx="2" ry="2"><title>2007-06-06: 0 entries</title></rect>
<rect x="294" y="66" width="10" height="10" fill="#ebedf0" rx="2" ry="2"><title>2007-06-07: 0 entries</title></rect>
<rect x="294" y="78" width="10" height="10" fill="#ebedf0" rx="2" ry="2"><title>2007-06-08: 0 entries</title></rect>
<rect x="294" y="90" width="10" height="10" fill="#ebedf0" rx="2" ry="2"><title>2007-06-09: 0 entries</title></rect>
<rect x="306" y="18" width="10" height="10" fill="#ebedf0" rx="2" ry="2"><title>2007-06-10: 0 entries</title></rect>
<rect x="306" y="30" width="10" height="10" fill="#ebedf0" rx="2" ry="2"><title>2007-06-11: 0 entries</title></rect>
<rect x="306" y="42" width="10" height="10" fill="#ebedf0" rx="2" ry="2"><title>2007-06-12: 0 entries</title></rect>
<rect x="306" y="54" width="10" height="10" fill="#ebedf0" rx="2" ry="2"><title>2007-06-13: 0 entries</title></rect>
<rect x="306" y="66" width="10" height="10" fill="#ebedf0" rx="2" ry="2"><title>2007-06-14: 0 entries</title></rect>
<rect x="306" y="78" width="10" height="10" fill="#ebedf0" rx="2" ry="2"><title>2007-06-15: 0 entries</title></rect>
<rect x="306" y="90" width="10" height="10" fill="#ebedf0" rx="2" ry="2"><title>2007-06-16: 0 entries</title></rect>
<rect x="318" y="18" width="10" height="10" fill="#ebedf0" rx="2" ry="2"><title>2007-06-17: 0 entries</title></rect>
<rect x="318" y="30" width="10" height="10" fill="#ebedf0" rx="2" ry="2"><title>2007-06-18: 0 entries</title></rect>
<rect x="318" y="42" width="10" height="10" fill="#ebedf0" rx="2" ry="2"><title>2007-06-19: 0 entries</title></rect>
<rect x="318" y="54" width="10" height="10" fill="#ebedf0" rx="2" ry="2"><title>2007-06-20: 0 entries</title></rect>
<rect x="318" y="66" width="10" height="10" fill="#ebedf0" rx="2" ry="2"><title>2007-06-21: 0 entries</title></rect>
<rect x="318" y="78" width="10" height="10" fill="#ebedf0" rx="2" ry="2"><title>2007-06-22: 0 entries</title></rect>
<rect x="318" y="90" width="10" height="10" fill="#ebedf0" rx="2" ry="2"><title>2007-06-23: 0 entries</title></rect>
<rect x="330" y="18" width="10" height="10" fill="#ebedf0" rx="2" ry="2"><title>2007-06-24: 0 entries</title></rect>
<rect x="330" y="30" width="10" height="10" fill="#ebedf0" rx="2" ry="2"><title>2007-06-25: 0 entries</title></rect>
<rect x="330" y="42" width="10" height="10" fill="#ebedf0" rx="2" ry="2"><title>2007-06-26: 0 entries</title></rect>
<rect x="330" y="54" width="10" height="10" fill="#ebedf0" rx="2" ry="2"><title>2007-06-27: 0 entries</title></rect>
<rect x="330" y="66" width="10" height="10" fill="#ebedf0" rx="2" ry="2"><title>2007-06-28: 0 entries</title></rect>
<rect x="330" y="78" width="10" height="10" fill="#ebedf0" rx="2" ry="2"><title>2007-06-29: 0 entries</title></rect>
<rect x="330" y="90" width="10" height="10" fill="#ebedf0" rx="2" ry="2"><title>2007-06-30: 0 entries</title></rect>
<text x="342" y="12" font-family="sans-serif" font-size="8" fill="#767676">Jul</text>
<rect x="342" y="18" width="10" height="10" fill="#ebedf0" rx="2" ry="2"><title>2007-07-01: 0 entries</title></rect>
<rect x="342" y="30" width="10" height="10" fill="#ebedf0" rx="2" ry="2"><title>2007-07-02: 0 entries</title></rect>
<rect x="342" y="42" width="10" height="10" fill="#ebedf0" rx="2" ry="2"><title>2007-07-03: 0 entries</title></rect>
<rect x="342" y="54" width="10" height="10" fill="#ebedf0" rx="2" ry="2"><title>2007-07-04: 0 entries</title></rect>
<rect x="342" y="66" width="10" height="10" fill="#ebedf0" rx="2" ry="2"><title>2007-07-05: 0 entries</title></rect>
<rect x="342" y="78" width="10" height="10" fill="#ebedf0" rx="2" ry="2"><title>2007-07-06: 0 entries</title></rect>
<rect x="342" y="90" width="10" height="10" fill="#ebedf0" rx="2" ry="2"><title>2007-07-07: 0 entries</title></rect>
<rect x="354" y="18" width="10" height="10" fill="#ebedf0" rx="2" ry="2"><title>2007-07-08: 0 entries</title></rect>
<rect x="354" y="30" width="10" height="10" fill="#ebedf0" rx="2" ry="2"><title>2007-07-09: 0 entries</title></rect>
<rect x="354" y="42" width="10" height="10" fill="#ebedf0" rx="2" ry="2"><title>2007-07-10: 0 entries</title></rect>
<rect x="354" y="54" width="10" height="10" fill="#ebedf0" rx="2" ry="2"><title>2007-07-11: 0 entries</title></rect>
<rect x="354" y="66" width="10" height="10" fill="#ebedf0" rx="2" ry="2"><title>2007-07-12: 0 entries</title></rect>
<rect x="354" y="78" width="10" height="10" fill="#ebedf0" rx="2" ry="2"><title>2007-07-13: 0 entries</title></rect>
<rect x="354" y="90" width="10" height="10" fill="#ebedf0" rx="2" ry="2"><title>2007-07-14: 0 entries</title></rect>
<rect x="366" y="18" width="10" height="10" fill="#ebedf0" rx="2" ry="2"><title>2007-07-15: 0 entries</title></rect>
<rect x="366" y="30" width="10" height="10" fill="#ebedf0" rx="2" ry="2"><title>2007-07-16: 0 entries</title></rect>
<rect x="366" y="42" width="10" height="10" fill="#ebedf0" rx="2" ry="2"><title>2007-07-17: 0 entries</title></rect>
<rect x="366" y="54" width="10" height="10" fill="#ebedf0" rx="2" ry="2"><title>2007-07-18: 0 entries</title></rect>
<rect x="366" y="66" width="10" height="10" fill="#ebedf0" rx="2" ry="2"><title>2007-07-19: 0 entries</title></rect>
<rect x="366" y="78" width="10" height="10" fill="#ebedf0" rx="2" ry="2"><title>2007-07-20: 0 entries</title></rect>
<rect x="366" y="90" width="10" height="10" fill="#ebedf0" rx="2" ry="2"><title>2007-07-21: 0 entries</title></rect>
<rect x="378" y="18" width="10" height="10" fill="#ebedf0" rx="2" ry="2"><title>2007-07-22: 0 entries</title></rect>
<rect x="378" y="30" width="10" height="10" fill="#ebedf0" rx="2" ry="2"><title>2007-07-23: 0 entries</title></rect>
<rect x="378" y="42" width="10" height="10" fill="#ebedf0" rx="2" ry="2"><title>2007-07-24: 0 entries</title></rect>
<rect x="378" y="54" width="10" height="10" fill="#ebedf0" rx="2" ry="2"><title>2007-07-25: 0 entries</title></rect>
<rect x="378" y="66" width="10" height="10" fill="#ebedf0" rx="2" ry="2"><title>2007-07-26: 0 entries</title></rect>
<rect x="378" y="78" width="10" height="10" fill="#ebedf0" rx="2" ry="2"><title>2007-07-27: 0 entries</title></rect>
<rect x="378" y="90" width="10" height="10" fill="#ebedf0" rx="2" ry="2"><title>2007-07-28: 0 entries</title></rect>
<rect x="390" y="18" width="10" height="10" fill="#ebedf0" rx="2" ry="2"><title>2007-07-29: 0 entries</title></rect>
<rect x="390" y="30" width="10" height="10" fill="#ebedf0" rx="2" ry="2"><title>2007-07-30: 0 entries</title></rect>
<rect x="390" y="42" width="10" height="10" fill="#ebedf0" rx="2" ry="2"><title>2007-07-31: 0 entries</title></rect>
<rect x="390" y="54" width="10" height="10" fill="#ebedf0" rx="2" ry="2"><title>2007-08-01: 0 entries</title></rect>
<rect x="390" y="66" width="10" height="10" fill="#ebedf0" rx="2" ry="2"><title>2007-08-02: 0 entries</title></rect>
<rect x="390" y="78" width="10" height="10" fill="#ebedf0" rx="2" ry="2"><title>2007-08-03: 0 entries</title></rect>
<rect x="390" y="90" width="10" height="10" fill="#ebedf0" rx="2" ry="2"><title>2007-08-04: 0 entries</title></rect>
<text x="402" y="12" font-family="sans-serif" font-size="8" fill="#767676">Aug</text>
<rect x="402" y="18" width="10" height="10" fill="#ebedf0" rx="2" ry="2"><title>2007-08-05: 0 entries</title></rect>
<rect x="402" y="30" width="10" height="10" fill="#ebedf0" rx="2" ry="2"><title>2007-08-06: 0 entries</title></rect>
<rect x="402" y="42" width="10" height="10" fill="#ebedf0" rx="2" ry="2"><title>2007-08-07: 0 entries</title></rect>
<rect x="402" y="54" width="10" height="10" fill="#ebedf0" rx="2" ry="2"><title>2007-08-08: 0 entries</title></rect>
<rect x="402" y="66" width="10" height="10" fill="#ebedf0" rx="2" ry="2"><title>2007-08-09: 0 entries</title></rect>
<rect x="402" y="78" width="10" height="10" fill="#ebedf0" rx="2" ry="2"><title>2007-08-10: 0 entries</title></rect>
<rect x="402" y="90" width="10" height="10" fill="#ebedf0" rx="2" ry="2"><title>2007-08-11: 0 entries</title></rect>
<rect x="414" y="18" width="10" height="10" fill="#ebedf0" rx="2" ry="2"><title>2007-08-12: 0 entries</title></rect>
<rect x="414" y="30" width="10" height="10" fill="#ebedf0" rx="2" ry="2"><title>2007-08-13: 0 entries</title></rect>
<rect x="414" y="42" width="10" height="10" fill="#ebedf0" rx="2" ry="2"><title>2007-08-14: 0 entries</title></rect>
<rect x="414" y="54" width="10" height="10" fill="#ebedf0" rx="2" ry="2"><title>2007-08-15: 0 entries</title></rect>
<rect x="414" y="66" width="10" height="10" fill="#ebedf0" rx="2" ry="2"><title>2007-08-16: 0 entries</title></rect>
<rect x="414" y="78" width="10" height="10" fill="#ebedf0" rx="2" ry="2"><title>2007-08-17: 0 entries</title></rect>
<rect x="414" y="90" width="10" height="10" fill="#ebedf0" rx="2" ry="2"><title>2007-08-18: 0 entries</title></rect>
<rect x="426" y="18" width="10" height="10" fill="#ebedf0" rx="2" ry="2"><title>2007-08-19: 0 entries</title></rect>
<rect x="426" y="30" width="10" height="10" fill="#ebedf0" rx="2" ry="2"><title>2007-08-20: 0 entries</title></rect>
<rect x="426" y="42" width="10" height="10" fill="#ebedf0" rx="2" ry="2"><title>2007-08-21: 0 entries</title></rect>
<rect x="426" y="54" width="10" height="10" fill="#ebedf0" rx="2" ry="2"><title>2007-08-22: 0 entries</title></rect>
<rect x="426" y="66" width="10" height="10" fill="#ebedf0" rx="2" ry="2"><title>2007-08-23: 0 entries</title></rect>
<rect x="426" y="78" width="10" height="10" fill="#ebedf0" rx="2" ry="2"><title>2007-08-24: 0 entries</title></rect>
<rect x="426" y="90" width="10" height="10" fill="#ebedf0" rx="2" ry="2"><title>2007-08-25: 0 entries</title></rect>
<rect x="438" y="18" width="10" height="10" fill="#ebedf0" rx="2" ry="2"><title>2007-08-26: 0 entries</title></rect>
<rect x="438" y="30" width="10" height="10" fill="#ebedf0" rx="2" ry="2"><title>2007-08-27: 0 entries</title></rect>
<a href="https://saiht.de/blog/2007/08/28/registrierung-von-saiht-org/"><rect x="438" y="42" width="10" height="10" fill="#216e39" rx="2" ry="2"><title>2007-08-28: 1 entry
Registrierung von saiht.org</title></rect></a>
<rect x="438" y="54" width="10" height="10" fill="#ebedf0" rx="2" ry="2"><title>2007-08-29: 0 entries</title></rect>
<rect x="438" y="66" width="10" height="10" fill="#ebedf0" rx="2" ry="2"><title>2007-08-30: 0 entries</title></rect>
<rect x="438" y="78" width="10" height="10" fill="#ebedf0" rx="2" ry="2"><title>2007-08-31: 0 entries</title></rect>
<rect x="438" y="90" width="10" height="10" fill="#ebedf0" rx="2" ry="2"><title>2007-09-01: 0 entries</title></rect>
<text x="450" y="12" font-family="sans-serif" font-size="8" fill="#767676">Sep</text>
<rect x="450" y="18" width="10" height="10" fill="#ebedf0" rx="2" ry="2"><title>2007-09-02: 0 entries</title></rect>
<rect x="450" y="30" width="10" height="10" fill="#ebedf0" rx="2" ry="2"><title>2007-09-03: 0 entries</title></rect>
<rect x="450" y="42" width="10" height="10" fill="#ebedf0" rx="2" ry="2"><title>2007-09-04: 0 entries</title></rect>
<rect x="450" y="54" width="10" height="10" fill="#ebedf0" rx="2" ry="2"><title>2007-09-05: 0 entries</title></rect>
<rect x="450" y="66" width="10" height="10" fill="#ebedf0" rx="2" ry="2"><title>2007-09-06: 0 entries</title></rect>
<rect x="450" y="78" width="10" height="10" fill="#ebedf0" rx="2" ry="2"><title>2007-09-07: 0 entries</title></rect>
<rect x="450" y="90" width="10" height="10" fill="#ebedf0" rx="2" ry="2"><title>2007-09-08: 0 entries</title></rect>
<rect x="462" y="18" width="10" height="10" fill="#ebedf0" rx="2" ry="2"><title>2007-09-09: 0 entries</title></rect>
<a href="https://saiht.de/blog/2007/09/10/abflug-nach-moskau/"><rect x="462" y="30" width="10" height="10" fill="#216e39" rx="2" ry="2"><title>2007-09-10: 1 entry
Abflug nach Moskau</title></rect></a>
<rect x="462" y="42" width="10" height="10" fill="#ebedf0" rx="2" ry="2"><title>2007-09-11: 0 entries</title></rect>
<rect x="462" y="54" width="10" height="10" fill="#ebedf0" rx="2" ry="2"><title>2007-09-12: 0 entries</title></rect>
<rect x="462" y="66" width="10" height="10" fill="#ebedf0" rx="2" ry="2"><title>2007-09-13: 0 entries</title></rect>
<rect x="462" y="78" width="10" height="10" fill="#ebedf0" rx="2" ry="2"><title>2007-09-14: 0 entries</title></rect>
<rect x="462" y="90" width="10" height="10" fill="#ebedf0" rx="2" ry="2"><title>2007-09-15: 0 entries</title></rect>
<rect x="474" y="18" width="10" height="10" fill="#ebedf0" rx="2" ry="2"><title>2007-09-16: 0 entries</title></rect>
<rect x="474" y="30" width="10" height="10" fill="#ebedf0" rx="2" ry="2"><title>2007-09-17: 0 entries</title></rect>
<rect x="474" y="42" width="10" height="10" fill="#ebedf0" rx="2" ry="2"><title>2007-09-18: 0 entries</title></rect>
<rect x="474" y="54" width="10" height="10" fill="#ebedf0" rx="2" ry="2"><title>2007-09-19: 0 entries</title></rect>
<rect x="474" y="66" width="10" height="10" fill="#ebedf0" rx="2" ry="2"><title>2007-09-20: 0 entries</title></rect>
<rect x="474" y="78" width="10" height="10" fill="#ebedf0" rx="2" ry="2"><title>2007-09-21: 0 entries</title></rect>
<rect x="474" y="90" width="10" height="10" fill="#ebedf0" rx="2" ry="2"><title>2007-09-22: 0 entries</title></rect>
<rect x="486" y="18" width="10" height="10" fill="#ebedf0" rx="2" ry="2"><title>2007-09-23: 0 entries</title></rect>
<rect x="486" y="30" width="10" height="10" fill="#ebedf0" rx="2" ry="2"><title>2007-09-24: 0 entries</title></rect>
<rect x="486" y="42" width="10" height="10" fill="#ebedf0" rx="2" ry="2"><title>2007-09-25: 0 entries</title></rect>
<rect x="486" y="54" width="10" height="10" fill="#ebedf0" rx="2" ry="2"><title>2007-09-26: 0 entries</title></rect>
<rect x="486" y="66" width="10" height="10" fill="#ebedf0" rx="2" ry="2"><title>2007-09-27: 0 entries</title></rect>
<rect x="486" y="78" width="10" height="10" fill="#ebedf0" rx="2" ry="2"><title>2007-09-28: 0 entries</title></rect>
<rect x="486" y="90" width="10" height="10" fill="#ebedf0" rx="2" ry="2"><title>2007-09-29: 0 entries</title></rect>
<rect x="498" y="18" width="10" height="10" fill="#ebedf0" rx="2" ry="2"><title>2007-09-30: 0 entries</title></rect>
<rect x="498" y="30" width="10" height="10" fill="#ebedf0" rx="2" ry="2"><title>2007-10-01: 0 entries</title></rect>
<rect x="498" y="42" width="10" height="10" fill="#ebedf0" rx="2" ry="2"><title>2007-10-02: 0 entries</title></rect>
<rect x="498" y="54" width="10" height="10" fill="#ebedf0" rx="2" ry="2"><title>2007-10-03: 0 entries</title></rect>
<rect x="498" y="66" width="10" height="10" fill="#ebedf0" rx="2" ry="2"><title>2007-10-04: 0 entries</title></rect>
<rect x="498" y="78" width="10" height="10" fill="#ebedf0" rx="2" ry="2"><title>2007-10-05: 0 entries</title></rect>
<rect x="498" y="90" width="10" height="10" fill="#ebedf0" rx="2" ry="2"><title>2007-10-06: 0 entries</title></rect>
<text x="510" y="12" font-family="sans-serif" font-size="8" fill="#767676">Oct</text>
<rect x="510" y="18" width="10" height="10" fill="#ebedf0" rx="2" ry="2"><title>2007-10-07: 0 entries</title></rect>
<rect x="510" y="30" width="10" height="10" fill="#ebedf0" rx="2" ry="2"><title>2007-10-08: 0 entries</title></rect>
<rect x="510" y="42" width="10" height="10" fill="#ebedf0" rx="2" ry="2"><title>2007-10-09: 0 entries</title></rect>
<rect x="510" y="54" width="10" height="10" fill="#ebedf0" rx="2" ry="2"><title>2007-10-10: 0 entries</title></rect>
<rect x="510" y="66" width="10" height="10" fill="#ebedf0" rx="2" ry="2"><title>2007-10-11: 0 entries</title></rect>
<a href="https://saiht.de/blog/2007/10/12/aufstieg-auf-den-elbrus/"><rect x="510" y="78" width="10" height="10" fill="#216e39" rx="2" ry="2"><title>2007-10-12: 1 entry
Aufstieg auf den Elbrus</title></rect></a>
<rect x="510" y="90" width="10" height="10" fill="#ebedf0" rx="2" ry="2"><title>2007-10-13: 0 entries</title></rect>
<rect x="522" y="18" width="10" height="10" fill="#ebedf0" rx="2" ry="2"><title>2007-10-14: 0 entries</title></rect>
<rect x="522" y="30" width="10" height="10" fill="#ebedf0" rx="2" ry="2"><title>2007-10-15: 0 entries</title></rect>
<rect x="522" y="42" width="10" height="10" fill="#ebedf0" rx="2" ry="2"><title>2007-10-16: 0 entries</title></rect>
<rect x="522" y="54" width="10" height="10" fill="#ebedf0" rx="2" ry="2"><title>2007-10-17: 0 entries</title></rect>
<rect x="522" y="66" width="10" height="10" fill="#ebedf0" rx="2" ry="2"><title>2007-10-18: 0 entries</title></rect>
<rect x="522" y="78" width="10" height="10" fill="#ebedf0" rx="2" ry="2"><title>2007-10-19: 0 entries</title></rect>
<rect x="522" y="90" width="10" height="10" fill="#ebedf0" rx="2" ry="2"><title>2007-10-20: 0 entries</title></rect>
<rect x="534" y="18" width="10" height="10" fill="#ebedf0" rx="2" ry="2"><title>2007-10-21: 0 entries</title></rect>
<rect x="534" y="30" width="10" height="10" fill="#ebedf0" rx="2" ry="2"><title>2007-10-22: 0 entries</title></rect>
<rect x="534" y="42" width="10" height="10" fill="#ebedf0" rx="2" ry="2"><title>2007-10-23: 0 entries</title></rect>
<a href="https://saiht.de/blog/2007/10/24/grunde-fur-das-ledigsein/"><rect x="534" y="54" width="10" height="10" fill="#216e39" rx="2" ry="2"><title>2007-10-24: 1 entry
Gründe für das Ledigsein</title></rect></a>
<rect x="534" y="66" width="10" height="10" fill="#ebedf0" rx="2" ry="2"><title>2007-10-25: 0 entries</title></rect>
<rect x="534" y="78" width="10" height="10" fill="#ebedf0" rx="2" ry="2"><title>2007-10-26: 0 entries</title></rect>
<rect x="534" y="90" width="10" height="10" fill="#ebedf0" rx="2" ry="2"><title>2007-10-27: 0 entries</title></rect>
<rect x="546" y="18" width="10" height="10" fill="#ebedf0" rx="2" ry="2"><title>2007-10-28: 0 entries</title></rect>
<rect x="546" y="30" width="10" height="10" fill="#ebedf0" rx="2" ry="2"><title>2007-10-29: 0 entries</title></rect>
<rect x="546" y="42" width="10" height="10" fill="#ebedf0" rx="2" ry="2"><title>2007-10-30: 0 entries</title></rect>
<rect x="546" y="54" width="10" height="10" fill="#ebedf0" rx="2" ry="2"><title>2007-10-31: 0 entries</title></rect>
<rect x="546" y="66" width="10" height="10" fill="#ebedf0" rx="2" ry="2"><title>2007-11-01: 0 entries</title></rect>
<rect x="546" y="78" width="10" height="10" fill="#ebedf0" rx="2" ry="2"><title>2007-11-02: 0 entries</title></rect>
<rect x="546" y="90" width="10" height="10" fill="#ebedf0" rx="2" ry="2"><title>2007-11-03: 0 entries</title></rect>
<text x="558" y="12" font-family="sans-serif" font-size="8" fill="#767676">Nov</text>
<rect x="558" y="18" width="10" height="10" fill="#ebedf0" rx="2" ry="2"><title>2007-11-04: 0 entries</title></rect>
<rect x="558" y="30" width="10" height="10" fill="#ebedf0" rx="2" ry="2"><title>2007-11-05: 0 entries</title></rect>
<rect x="558" y="42" width="10" height="10" fill="#ebedf0" rx="2" ry="2"><title>2007-11-06: 0 entries</title></rect>
<rect x="558" y="54" width="10" height="10" fill="#ebedf0" rx="2" ry="2"><title>2007-11-07: 0 entries</title></rect>
<rect x="558" y="66" width="10" height="10" fill="#ebedf0" rx="2" ry="2"><title>2007-11-08: 0 entries</title></rect>
<rect x="558" y="78" width="10" height="10" fill="#ebedf0" rx="2" ry="2"><title>2007-11-09: 0 entries</title></rect>
<rect x="558" y="90" width="10" height="10" fill="#ebedf0" rx="2" ry="2"><title>2007-11-10: 0 entries</title></rect>
<rect x="570" y="18" width="10" height="10" fill="#ebedf0" rx="2" ry="2"><title>2007-11-11: 0 entries</title></rect>
<rect x="570" y="30" width="10" height="10" fill="#ebedf0" rx="2" ry="2"><title>2007-11-12: 0 entries</title></rect>
<rect x="570" y="42" width="10" height="10" fill="#ebedf0" rx="2" ry="2"><title>2007-11-13: 0 entries</title></rect>
<rect x="570" y="54" width="10" height="10" fill="#ebedf0" rx="2" ry="2"><title>2007-11-14: 0 entries</title></rect>
<rect x="570" y="66" width="10" height="10" fill="#ebedf0" rx="2" ry="2"><title>2007-11-15: 0 entries</title></rect>
<rect x="570" y="78" width="10" height="10" fill="#ebedf0" rx="2" ry="2"><title>2007-11-16: 0 entries</title></rect>
<rect x="570" y="90" width="10" height="10" fill="#ebedf0" rx="2" ry="2"><title>2007-11-17: 0 entries</title></rect>
<rect x="582" y="18" width="10" height="10" fill="#ebedf0" rx="2" ry="2"><title>2007-11-18: 0 entries</title></rect>
<rect x="582" y="30" width="10" height="10" fill="#ebedf0" rx="2" ry="2"><title>2007-11-19: 0 entries</title></rect>
<rect x="582" y="42" width="10" height="10" fill="#ebedf0" rx="2" ry="2"><title>2007-11-20: 0 entries</title></rect>
<rect x="582" y="54" width="10" height="10" fill="#ebedf0" rx="2" ry="2"><title>2007-11-21: 0 entries</title></rect>
<rect x="582" y="66" width="10" height="10" fill="#ebedf0" rx="2" ry="2"><title>2007-11-22: 0 entries</title></rect>
<rect x="582" y="78" width="10" height="10" fill="#ebedf0" rx="2" ry="2"><title>2007-11-23: 0 entries</title></rect>
<rect x="582" y="90" width="10" height="10" fill="#ebedf0" rx="2" ry="2"><title>2007-11-24: 0 entries</title></rect>
<rect x="594" y="18" width="10" height="10" fill="#ebedf0" rx="2" ry="2"><title>2007-11-25: 0 entries</title></rect>
<rect x="594" y="30" width="10" height="10" fill="#ebedf0" rx="2" ry="2"><title>2007-11-26: 0 entries</title></rect>
<rect x="594" y="42" width="10" height="10" fill="#ebedf0" rx="2" ry="2"><title>2007-11-27: 0 entries</title></rect>
<rect x="594" y="54" width="10" height="10" fill="#ebedf0" rx="2" ry="2"><title>2007-11-28: 0 entries</title></rect>
<a href="https://saiht.de/legacy/projekte/02leben.html"><rect x="594" y="66" width="10" height="10" fill="#42a5f5" rx="2" ry="2"><title>2007-11-29: 1 entry
Kann Leben durch Zufall entstehen?</title></rect></a>
<rect x="594" y="78" width="10" height="10" fill="#ebedf0" rx="2" ry="2"><title>2007-11-30: 0 entries</title></rect>
<rect x="594" y="90" width="10" height="10" fill="#ebedf0" rx="2" ry="2"><title>2007-12-01: 0 entries</title></rect>
<text x="606" y="12" font-family="sans-serif" font-size="8" fill="#767676">Dec</text>
<rect x="606" y="18" width="10" height="10" fill="#ebedf0" rx="2" ry="2"><title>2007-12-02: 0 entries</title></rect>
<rect x="606" y="30" width="10" height="10" fill="#ebedf0" rx="2" ry="2"><title>2007-12-03: 0 entries</title></rect>
<rect x="606" y="42" width="10" height="10" fill="#ebedf0" rx="2" ry="2"><title>2007-12-04: 0 entries</title></rect>
<rect x="606" y="54" width="10" height="10" fill="#ebedf0" rx="2" ry="2"><title>2007-12-05: 0 entries</title></rect>
<rect x="606" y="66" width="10" height="10" fill="#ebedf0" rx="2" ry="2"><title>2007-12-06: 0 entries</title></rect>
<rect x="606" y="78" width="10" height="10" fill="#ebedf0" rx="2" ry="2"><title>2007-12-07: 0 entries</title></rect>
<rect x="606" y="90" width="10" height="10" fill="#ebedf0" rx="2" ry="2"><title>2007-12-08: 0 entries</title></rect>
<rect x="618" y="18" width="10" height="10" fill="#ebedf0" rx="2" ry="2"><title>2007-12-09: 0 entries</title></rect>
<a href="https://saiht.de/blog/2007/12/10/russischer-vortrag-uber-studienergebnisse/"><rect x="618" y="30" width="10" height="10" fill="#216e39" rx="2" ry="2"><title>2007-12-10: 1 entry
russischer Vortrag über Studienergebnisse</title></rect></a>
<rect x="618" y="42" width="10" height="10" fill="#ebedf0" rx="2" ry="2"><title>2007-12-11: 0 entries</title></rect>
<rect x="618" y="54" width="10" height="10" fill="#ebedf0" rx="2" ry="2"><title>2007-12-12: 0 entries</title></rect>
<rect x="618" y="66" width="10" height="10" fill="#ebedf0" rx="2" ry="2"><title>2007-12-13: 0 entries</title></rect>
<rect x="618" y="78" width="10" height="10" fill="#ebedf0" rx="2" ry="2"><title>2007-12-14: 0 entries</title></rect>
<rect x="618" y="90" width="10" height="10" fill="#ebedf0" rx="2" ry="2"><title>2007-12-15: 0 entries</title></rect>
<rect x="630" y="18" width="10" height="10" fill="#ebedf0" rx="2" ry="2"><title>2007-12-16: 0 entries</title></rect>
<rect x="630" y="30" width="10" height="10" fill="#ebedf0" rx="2" ry="2"><title>2007-12-17: 0 entries</title></rect>
<rect x="630" y="42" width="10" height="10" fill="#ebedf0" rx="2" ry="2"><title>2007-12-18: 0 entries</title></rect>
<rect x="630" y="54" width="10" height="10" fill="#ebedf0" rx="2" ry="2"><title>2007-12-19: 0 entries</title></rect>
<rect x="630" y="66" width="10" height="10" fill="#ebedf0" rx="2" ry="2"><title>2007-12-20: 0 entries</title></rect>
<rect x="630" y="78" width="10" height="10" fill="#ebedf0" rx="2" ry="2"><title>2007-12-21: 0 entries</title></rect>
<rect x="630" y="90" width="10" height="10" fill="#ebedf0" rx="2" ry="2"><title>2007-12-22: 0 entries</title></rect>
<rect x="642" y="18" width="10" height="10" fill="#ebedf0" rx="2" ry="2"><title>2007-12-23: 0 entries</title></rect>
<rect x="642" y="30" width="10" height="10" fill="#ebedf0" rx="2" ry="2"><title>2007-12-24: 0 entries</title></rect>
<rect x="642" y="42" width="10" height="10" fill="#ebedf0" rx="2" ry="2"><title>2007-12-25: 0 entries</title></rect>
<rect x="642" y="54" width="10" height="10" fill="#ebedf0" rx="2" ry="2"><title>2007-12-26: 0 entries</title></rect>
<rect x="642" y="66" width="10" height="10" fill="#ebedf0" rx="2" ry="2"><title>2007-12-27: 0 entries</title></rect>
<rect x="642" y="78" width="10" height="10" fill="#ebedf0" rx="2" ry="2"><title>2007-12-28: 0 entries</title></rect>
<rect x="642" y="90" width="10" height="10" fill="#ebedf0" rx="2" ry="2"><title>2007-12-29: 0 entries</title></rect>
<rect x="654" y="18" width="10" height="10" fill="#ebedf0" rx="2" ry="2"><title>2007-12-30: 0 entries</title></rect>
<rect x="654" y="30" width="10" height="10" fill="#ebedf0" rx="2" ry="2"><title>2007-12-31: 0 entries</title></rect>
<rect x="30" y="112" width="8" height="8" fill="#30a14e" rx="1" ry="1"/>
<text x="42" y="119" font-family="sans-serif" font-size="7" fill="#767676">WordPress</text>
<rect x="100" y="112" width="8" height="8" fill="#e57373" rx="1" ry="1"/>
<text x="112" y="119" font-family="sans-serif" font-size="7" fill="#767676">Quartz</text>
<rect x="170" y="112" width="8" height="8" fill="#64b5f6" rx="1" ry="1"/>
<text x="182" y="119" font-family="sans-serif" font-size="7" fill="#767676">Legacy HTML</text>
<rect x="240" y="112" width="8" height="8" fill="#ffa726" rx="1" ry="1"/>
<text x="252" y="119" font-family="sans-serif" font-size="7" fill="#767676">GitHub</text>
</svg>